<svg id="Слой_1" data-name="Слой 1" xmlns="http://www.w3.org/2000/svg" viewBox="0 0 500 500"><defs><style>.cls-1{fill:#444;}</style></defs><path class="cls-1" d="M207,202.15a26.6,26.6,0,0,0-.32,10.74,41.86,41.86,0,0,0,3.1,10.37,55.7,55.7,0,0,0,5.31,9.47,48.06,48.06,0,0,0,6.8,7.82,11.56,11.56,0,0,0-.59,2.71,17.79,17.79,0,0,0,.14,3.27c0,.29.13.55.19.83a7.59,7.59,0,0,0-1.68,2.47,14.45,14.45,0,0,0-.9,2.72,27.45,27.45,0,0,0-.65,5.53,43.67,43.67,0,0,0,.27,5.5c.18,1.82.52,3.62.87,5.41-.2-1.81-.39-3.63-.42-5.44a42.41,42.41,0,0,1,.17-5.41,25.93,25.93,0,0,1,1.05-5.23,13.3,13.3,0,0,1,1-2.38,6.79,6.79,0,0,1,.77-1,.58.58,0,0,0,0,.14,12.61,12.61,0,0,0,1.34,2.91,20.61,20.61,0,0,1-.58-3.08,28.83,28.83,0,0,1-.16-3.07,21.47,21.47,0,0,1,.21-3,11.67,11.67,0,0,1,.7-2.78l.25-.62-.49-.42a49.52,49.52,0,0,1-7.15-7.73,56.59,56.59,0,0,1-5.52-9.07,45,45,0,0,1-3.49-10A27.74,27.74,0,0,1,207,202.15Z"/><path class="cls-1" d="M225.63,221.57l.6.76a20.2,20.2,0,0,0,2.73,2.74,30.28,30.28,0,0,0,6.5,4.15,29.32,29.32,0,0,0,7.34,2.38,17.66,17.66,0,0,0,7.66-.15,29.89,29.89,0,0,1-7.35-1.21,46,46,0,0,1-6.89-2.64c-.56-.25-1.12-.51-1.66-.81s-1.09-.57-1.62-.88c-1.08-.59-2.11-1.27-3.15-1.95a24.69,24.69,0,0,1-5.55-4.93,10.33,10.33,0,0,0,.86,1.73C225.27,221,225.45,221.3,225.63,221.57Z"/><path class="cls-1" d="M199.88,220.19c.26-.85.59-1.68.77-2.55a6.59,6.59,0,0,0,0-2.8,6.44,6.44,0,0,0-1.61,2.29c-.36.81-.57,1.68-.85,2.53-.53,1.69-1,3.4-1.51,5.11-.95,3.44-1.85,6.88-2.51,10.41,1.5-3.26,2.76-6.59,4-9.94Q199.05,222.72,199.88,220.19Z"/><path class="cls-1" d="M194.5,129.49c2.09.6,4.19,1.21,6.29,1.78l1.57.44,1.58.44c.87.24,1.73.51,2.59.82.66,1.67,2.05,4.27,2,5.28,1-3.16-1.16-7.15-2.23-6.77-.24.08-.11.59.13,1.25a17.81,17.81,0,0,0-2.17-1.4c-1-.5-2-1-3-1.37a55.61,55.61,0,0,0-6.24-2.19,58.43,58.43,0,0,0-6.44-1.5,28.22,28.22,0,0,0-6.62-.48c2.14.59,4.21,1.22,6.31,1.83S192.41,128.88,194.5,129.49Z"/><path class="cls-1" d="M218.82,91.49c-.83,1-1.69,1.87-2.6,2.74a23.59,23.59,0,0,1-3,2.47,8.19,8.19,0,0,0,3.83-1.36,14.29,14.29,0,0,0,3.08-2.67,15.29,15.29,0,0,0,2.26-3.37,9.12,9.12,0,0,0,1-3.93,35.25,35.25,0,0,1-2.23,3.19C220.44,89.57,219.64,90.54,218.82,91.49Z"/><path class="cls-1" d="M181.89,72.55c.74-.56-1.53-2.32-1.67-3.09C179.81,71.45,181.15,73.11,181.89,72.55Z"/><path class="cls-1" d="M201.1,53.56c-1-.07-6.73-4.8-8.86-5.17s-5-.12-8,2.67c2-.52,5.51.42,7.6,1.09S198,52.74,201.1,53.56Z"/><path class="cls-1" d="M212.11,72.43c.66-.44,1.35-.82,2.06-1.25a22.82,22.82,0,0,0,2-1.38,15.15,15.15,0,0,0,1.86-1.65A5,5,0,0,0,219.35,66a6.25,6.25,0,0,1-1.67,1.69c-.64.47-1.31.89-2,1.31-1.37.83-2.78,1.51-4.21,2.4a12.43,12.43,0,0,0-2,1.56,9.42,9.42,0,0,0-1.57,2,12.63,12.63,0,0,0-1.59,4.68,23.81,23.81,0,0,1,2.36-4.17A12.31,12.31,0,0,1,212.11,72.43Z"/><path class="cls-1" d="M189.45,65.85a2.92,2.92,0,0,1,1.53.52,4.2,4.2,0,0,0,2.68.69c-.22,0-.54-.56-1.29-1.21S190.19,64.88,189.45,65.85Z"/><path class="cls-1" d="M199.82,61.52h0c.1,0,.2,0,.3-.06.21.14.44.27.64.41h0l.08,0a.89.89,0,0,0,1.21-.35.9.9,0,0,0-.35-1.22c-1.37-.74-2.71-1.36-4.06-2l-4-1.9c-2.69-1.28-5.36-2.57-8-4,1.64,1.14,3.35,2.17,5.06,3.22v.05l0,.16c0,.11,0,.22,0,.33s-.08.44-.12.65c-.1.43-.24.84-.37,1.26s-.3.81-.47,1.21l-.09.2a1.39,1.39,0,0,1-.19-.06,19,19,0,0,1-3-1.77l-.07,0a1.2,1.2,0,0,0-1.53,1.82,8.23,8.23,0,0,0,3.85,2c.29.08.59.08.88.15a15.61,15.61,0,0,0,.07,1.75c-.15.07-.29.17-.44.24-.09-.33-.28-.64-.64-.64a.78.78,0,0,0-.78.77.79.79,0,0,0,.78.78c.35,0,.54-.32.64-.64.68-.12,1.36-.23,2-.39l2.86-.66,2.86-.65Zm-8.31-4.67c0-.24-.09-.47-.16-.71l0-.1c.63.39,1.23.81,1.86,1.19l3.84,2.3c1,.6,1.95,1.21,2.91,1.83a21,21,0,0,1-3.17,0,28.07,28.07,0,0,1-3.79-.67c-.49-.12-.92-.32-1.4-.47,0-.13.05-.28.06-.42,0-.49,0-1,0-1.45A10.18,10.18,0,0,0,191.51,56.85ZM194,62.28c-1,.18-1.93.39-2.89.62a2,2,0,0,0-.26.09,9.27,9.27,0,0,1,0-1.19c.64.1,1.29.27,1.94.32s1.54,0,2.3,0C194.68,62.17,194.33,62.21,194,62.28Z"/><path class="cls-1" d="M161.43,96.87a49.75,49.75,0,0,0-1,5.94c-.14,1-.15,2-.2,3,0,.5-.06,1,0,1.5l.06,1.51a39,39,0,0,0,2.23,11.74,63,63,0,0,1-.84-11.75l.05-1.46c0-.48.08-1,.12-1.45.08-1,.14-2,.31-2.91a55.54,55.54,0,0,1,1.06-5.73c.42-1.91,1-3.78,1.57-5.64s1.29-3.69,2-5.51c1.48-3.63,3.19-7.18,5-10.74a60.45,60.45,0,0,0-6.23,10.18,53.61,53.61,0,0,0-4,11.3Z"/><path class="cls-1" d="M154,108.91c.07-.72.16-1.43.23-2.15l.28-2.15c.12-.71.24-1.42.35-2.14.51-2.86,1.18-5.69,1.88-8.56a40.42,40.42,0,0,0-3.24,8.25,43,43,0,0,0-1.42,8.81l0,2.24c0,.75.06,1.49.09,2.24a32.83,32.83,0,0,0,.64,4.43,27.39,27.39,0,0,0,3.17,8.3,53.44,53.44,0,0,1-1.8-8.52c-.17-1.43-.28-2.86-.32-4.3,0-.72,0-1.43,0-2.15l.07-2.15Z"/><path class="cls-1" d="M242,28.77A42.39,42.39,0,0,1,247.56,40a31,31,0,0,1,.88,3c.12.51.29,1,.38,1.53l.28,1.55.31,1.56c.09.52.13,1,.19,1.57l.19,1.58a13.63,13.63,0,0,1,.16,1.58l.18,3.18c0,1.06,0,2.13,0,3.19v1.61l-.08,1.6c-.05,1.07-.09,2.15-.12,3.23.22-1.06.42-2.11.61-3.18l.29-1.59.16-1.61c.1-1.08.23-2.16.28-3.24l0-3.26c0-1.09-.11-2.17-.18-3.26,0-.54-.07-1.09-.14-1.63l-.25-1.62-.26-1.61c-.09-.54-.26-1.07-.38-1.6a31.61,31.61,0,0,0-.87-3.17c-.38-1-.68-2.08-1.16-3.08a27.62,27.62,0,0,0-1.41-3L245.9,32c-.25-.48-.59-.92-.88-1.38l-.91-1.37-1-1.29A29.71,29.71,0,0,0,241,25.47c-.36-.41-.78-.77-1.17-1.15s-.78-.76-1.2-1.1a35.17,35.17,0,0,0-5.3-3.73,57.32,57.32,0,0,1,4.7,4.36A44.86,44.86,0,0,1,242,28.77Z"/><path class="cls-1" d="M232.22,24.29a54.58,54.58,0,0,1,4.91,5.51,49.25,49.25,0,0,1,4.13,6.08,32.57,32.57,0,0,1,3,6.62,44.22,44.22,0,0,1,1.56,7.17,74.5,74.5,0,0,1,.36,14.87,48.08,48.08,0,0,0,1.06-7.45,49.06,49.06,0,0,0,0-7.57A39.41,39.41,0,0,0,245.89,42a32.71,32.71,0,0,0-3.09-7,48.72,48.72,0,0,0-9.63-11.71,43.22,43.22,0,0,0-6.1-4.5,29.64,29.64,0,0,0-6.86-3.11A45.22,45.22,0,0,1,232.22,24.29Z"/><path class="cls-1" d="M231.44,53.28a26.79,26.79,0,0,1-6.66-1.74,38.66,38.66,0,0,1-6.16-3.11,45.48,45.48,0,0,1-5.6-4,56.94,56.94,0,0,1-9.24-10.29,64,64,0,0,1-3.73-5.87A48.45,48.45,0,0,1,197,22a46.82,46.82,0,0,0,6,12.68,51,51,0,0,0,9.23,10.67,40.42,40.42,0,0,0,12.2,7.12,25.69,25.69,0,0,0,6.94,1.44,18.14,18.14,0,0,0,7-.93A19.34,19.34,0,0,1,231.44,53.28Z"/><path class="cls-1" d="M219.18,185.27A19.4,19.4,0,0,1,221.4,184l-.83.42C220.1,184.68,219.64,185,219.18,185.27Z"/><path class="cls-1" d="M155.78,215.28l2.55-3c.85-1,1.73-2,2.56-3.14a14.92,14.92,0,0,0-3.53,2.14,20.53,20.53,0,0,0-2.94,2.88,22.32,22.32,0,0,0-2.36,3.36,18.81,18.81,0,0,0-1.67,3.75,32.28,32.28,0,0,0,2.81-2.94C154.08,217.29,154.93,216.29,155.78,215.28Z"/><path class="cls-1" d="M285.86,210.55c2.38,5.56,5.21,8.58,11.32,12.16C292.22,214.47,287.9,214.27,285.86,210.55Z"/><path class="cls-1" d="M248.54,78.66c-.31-.93-.59-1.86-.94-2.77a30.22,30.22,0,0,0-2.55-5.24,49.21,49.21,0,0,1,1.71,5.5,53.9,53.9,0,0,1,1.13,5.6c.15.94.23,1.88.35,2.82s.17,1.89.18,2.83a31.92,31.92,0,0,1-.19,5.62A21.15,21.15,0,0,1,247,98.39a31.84,31.84,0,0,1-2.52,5,18.13,18.13,0,0,1-3.6,4.25,9,9,0,0,1-5.09,2.24,8.52,8.52,0,0,0,5.61-1.53,17.31,17.31,0,0,0,4.23-4.18A27.54,27.54,0,0,0,248.5,99a21.54,21.54,0,0,0,1.5-5.81,31.69,31.69,0,0,0,.11-5.92,37.67,37.67,0,0,0-.85-5.81C249.05,80.54,248.8,79.59,248.54,78.66Z"/><path class="cls-1" d="M242.63,98.58a26.17,26.17,0,0,0,.37-5.27c0-.87-.05-1.74-.1-2.6s-.14-1.72-.23-2.59a46.14,46.14,0,0,0-.94-5.12q-.58-2.5-1.38-5a81.86,81.86,0,0,0-3.65-9.61c1,3.28,1.87,6.58,2.64,9.89a73,73,0,0,1,1.75,10c.15,1.65.17,3.37.19,5a24.9,24.9,0,0,1-.39,4.92,11.87,11.87,0,0,1-1.73,4.36,17.16,17.16,0,0,1-3.42,3.58,8.88,8.88,0,0,0,4.6-2.65A9.69,9.69,0,0,0,242.63,98.58Z"/><path class="cls-1" d="M445.49,409.8c10.53-21,10.87-43.12.7-67s-27-26.74-36.09-26.27H410c-9.08.49-17.24,4.38-20.81,8.08a7.89,7.89,0,0,0-2.6.72l-.53.24v.14a17.45,17.45,0,0,0-8.56,10.54,15.22,15.22,0,0,0,2.32,13.17,25.5,25.5,0,0,0,14.94,10.12.89.89,0,0,0,1-.46.88.88,0,0,0-.18-1.06,10.67,10.67,0,0,1-2.7-9.67c.68-3.14,3.11-7.43,10.77-10.06a4.13,4.13,0,0,1,2.82.92,6.59,6.59,0,0,1,1,1,10.27,10.27,0,0,1,1.56,2.22c.1.21.21.37.3.59a7.72,7.72,0,0,1,.41,1.44,12.22,12.22,0,0,1-.88,8.65c-2.72,5.51-14.38,15.43-34.66,29.49a29,29,0,0,0-9.13,9.69c-.85-7.49-4.66-15.51-10.76-23.89a16.45,16.45,0,0,0-.91-1.57l-.14.11a116.28,116.28,0,0,0-11.69-13.29c-18.51-18-21.25-23.82-20.33-30.38a8.45,8.45,0,0,1,6.05-2.93,14.82,14.82,0,0,1,11.19,4.36c.06,1.54.06,8-3.78,8.76a.89.89,0,0,0,0,1.73c5.09,1.44,9.82,1,13.32-1.18s5.56-5.77,6.47-10.84c.6-3.41-.7-6.64-3-9.51,8.17.18,18.5.61,22.71,2.38l.12.05h.38a3.32,3.32,0,0,0,3-3,3.83,3.83,0,0,0-.12-1.87c8.6.69,21.28-.7,21.79-3.87l0-.19-.06-.19c-.13-.49-.56-2-9.65-1.92-1.44-.51-13.11-4.7-17.15-6.82l-.19-.1h-.21c-6.38-.09-18.33-.79-19.94-1.42-2.22-.9-6.46-3.14-7-3.91a16.46,16.46,0,0,0-1-2.25,155.17,155.17,0,0,1-10.27-25.82c-5.45-18.26-15.56-42.54-27.6-55.9-3.85-4.27-6.91-13.36-9.56-23.91A16,16,0,0,0,310.91,192c14.91-.46,16.34-12.89,16.36-13l.18-1.86-1.56,1c-.09.06-8.4,5.37-15.32,2.66-.11,0-.17-.09-.28-.13-4-1.73-6.83-6-8.29-12.63a75.94,75.94,0,0,1,7.48-9.29c5.68-6.36,11.54-12.93,11.23-20.51-.4-9.93-8.34-22.83-25.08-30.6a19.25,19.25,0,0,0,11-5.06,14.48,14.48,0,0,0,4.51-11.68l-.1-1.56-1.29.88c-3.66,2.48-9.33,5.11-15.54,3.55-6-1.49-11.39-6.53-16.18-15,4.18.72,9.59,0,13.41-3.19,2.42-2,5.09-6,4.1-13l-.26-1.86L294,62.13c-7.61,8.17-18.47,6.59-18.58,6.57l-.3,0h0c-.15,0-.3-.06-.46-.07-1.28-.59-5.75-4-16-24.33C242.66,12.84,236.89,9.44,233.92,9.61h-.21l-.18.11c-2.64,1.51-4.95,2-10.76,2.16l-1.34,0c-22.29.67-33.22,2.43-35.46,5.72A20.18,20.18,0,0,0,183,23.87c-1.45-2.88-3.22-8.45,1.17-13.69l3.2-3.81-4.32,2.46c-5.57,3.17-8.75,8.29-8.52,13.7a11.47,11.47,0,0,0,1.19,4.68,7.69,7.69,0,0,1-3.85-7.57l.22-4-1.9,3.5a12.88,12.88,0,0,0-.37,11.25c1.12,2.22,3.65,5,9.31,6-.31,5.37-1.81,11.56-9.2,20.08-3.46,4-8.21,8.08-13.24,12.41-6.81,5.86-13.84,11.92-18,18.14-5.85,8.69-3.25,14.71-1.81,16.94-9.28,4.58-20.15,13.55-23,23.15-2.43,8.1,1.5,14.78,11.36,19.32a15,15,0,0,1,8.11,10.93,9.93,9.93,0,0,1-3.41,9.25c-3.23,2.83-6.51,3.26-9.75,1.29l-2.28-1.38,1,2.48c1.33,3.33,6,5.29,11.19,4.64,2.65-.33,10.81-2.2,13.66-12.53,1,6.32-.79,16.88-6,22.71-3.75,4.22-8.59,5.28-14.38,3.16l-2.41-.88,1.33,2.18c3.09,5,7.13,6.17,10,6.22h.24a15.3,15.3,0,0,0,6.76-1.81c-5.52,4.94-15,8-20.16-5.31,2.78,13.54,11.92,12.2,14,11.93,1.9-.25,11.81-4,13.2-13.1,2-4,2.42-11,2.39-15.73a11.05,11.05,0,0,0,4.25,3.94c-1,9.14-2.39,18.27-4.42,25.31-5.9,4.35-16.1,22.5-22.88,34.57-2.49,4.43-4.46,7.94-5.21,8.93-2.59,3.4-21.53,18.59-23.77,20.38-5.09.41-20.31,1.69-21.81,2.45a24.22,24.22,0,0,0-4.34,3.43A39.1,39.1,0,0,1,61.67,276c-5.86,2.82-11.26,3.37-13.07,2.85a1.78,1.78,0,0,0-1.86.4,1.85,1.85,0,0,0-.28,1.92c.48,1.32,2.15,2.88,5.43,3.3,5.29.67,18.58-5.23,19.65-5.71l3.08-1c-.2.13-.39.23-.58.33l-1.9.92c-3.35,1.6-7.14,3.41-8.48,5.74l-.12.21v.23c0,2.25,1.12,3.84,2.78,3.95.49,0,1.24-.24,4.49-1.52l3.2-1.22a21.62,21.62,0,0,1,6.35,3.38c1.36,1,2.12,1.49,2.8,1.49l.24,0a1.43,1.43,0,0,0,1.09-1.34c.16-1.32-1-3.73-4.27-5.73,1-.32,1.87-.6,2.84-.9a9,9,0,0,1,3.45,4.39c.46,1.07.9,2.09,2,2.09.33,0,1.14-.14,1.57-1.42.53-1.65,0-4.45-1.65-6.52a41.18,41.18,0,0,1,5.73-1c5.77-.45,9.2-.95,12.52-6.06,2.06-3.17,10-10,22.29-19.29,6.1-4.6,29.75-23.13,33.95-29.81,3.68-5.86,7.27-21,8.22-25.15a29.34,29.34,0,0,0,3.29,1.17c-.09,8.29,5.19,26.16,14,36,3.53,3.94,1.41,12.22,0,17.69a23.1,23.1,0,0,0-1,4.73l-.1.31c-2.46,8.18-5.16,17.37-6.89,24-3.2-2.81-7.18-6-10.19-7.28-3.54-1.45-7.56-1.43-10.25.06A6.58,6.58,0,0,0,156.6,282l-.66,3.91,2.28-3.25c1.95-2.79,6.24-.94,7.46-.33,6.31,3.55,7.92,9.93,8.72,16.29.2,1.57.35,3.17.49,4.72s.27,2.84.44,4.22a4.19,4.19,0,0,1-1.26.44l-.41.09h0a197,197,0,0,0-48.51,18.57c-8.86,5.32-18,10.81-24.67,19.28l-.06.08a117.38,117.38,0,0,0-7.8,15c-1.22,2.74-3.25,5-5.41,7.38A37.91,37.91,0,0,0,82,375.22c-9.13,14.6-2.64,33.48,8.47,44.6l.09.09.11.06c16.06,8.76,33.3,12.69,51.53,16.85,4.07.92,8.29,1.89,12.41,2.89,22.31,6.19,43.19,9.88,62.65,13.13l1.67.29c12.86,2.31,25.18,4.45,37.73,5.27,0,0,0,.06.06.06,11.46.42,27.38,4.9,37.87,10.66,7.36,4.05,15.44,11.28,15.87,17.64a3.49,3.49,0,0,1-1.8,2.52c-1.71,1-4.33.82-7.19-.39a.89.89,0,0,0-1,1.41,11.87,11.87,0,0,0,9.29,4.33,14.29,14.29,0,0,0,5.91-1.31c4.5-2.1,7.27-6.05,7.26-10.15,3.68,1.31,14.05,4.26,23.15-.25,10-5,14-12.83,14.89-15.49,27.38-2.77,47.82-12.63,66.24-31.94a105.85,105.85,0,0,0,18.1-25.17c.12-.15.3-.25.41-.41ZM395.64,418c1.13.13,2.26.28,3.4.38q3.4.27,6.83.46c2.28.07,4.57.14,6.85.1,1.14,0,2.29-.05,3.43-.08s2.29-.1,3.44-.19c2.28-.14,4.57-.36,6.86-.69,1.13-.15,2.28-.34,3.42-.54s2.26-.47,3.39-.77a36.36,36.36,0,0,0,6.66-2.27c.63-.31,1.23-.71,1.84-1.08a96.89,96.89,0,0,1-6.87,10.38c-.71.22-1.45.33-2.18.48h.13c.69-.1,1.36-.3,2-.46a120.94,120.94,0,0,1-9,10.55c-18,18.89-38.08,28.52-64.8,31.3a12.7,12.7,0,0,0-.11-5.07,16.48,16.48,0,0,0-2.69-5.36A89.82,89.82,0,0,0,388,443.72c-8.64,4.28-23.34,8.24-31.57,9.7a14.21,14.21,0,0,0-3.09-2.7,10.68,10.68,0,0,0-6.34-1.34,1,1,0,0,0-.67.33,1.09,1.09,0,0,0,0,1.55l0,0a4.64,4.64,0,0,1,.74,1c.15.29.27.6.4.92a22.49,22.49,0,0,0-9.4-1.71A6.78,6.78,0,0,1,341,455c-8.39,1.26-21.28,2.83-27.44,1.68,0,0,10.6-3,16.93-8.24C373,430.7,410.7,429.71,410.7,429.71s-23.08.5-36,2.78c-9.72,1.7-27.08,6.79-35.16,9.23,5.13-3.18,10.25-6.36,15.53-9.22a119.72,119.72,0,0,1,12.46-6,57.13,57.13,0,0,1,6.5-2.2,43,43,0,0,1,6.7-1.24,89.63,89.63,0,0,1,13.82-.37c4.63.17,9.26.62,13.89,1.12,2.31.26,4.62.56,6.94.84s4.68.45,7,.51a61.11,61.11,0,0,0,7-.27c1.12-.11,2.2-.5,3.31-.72-1.11.16-2.22.25-3.34.3a62.14,62.14,0,0,1-7-.13c-2.32-.16-4.63-.42-6.91-.79s-4.61-.79-6.91-1.14q-6.94-1.1-14-1.59a91.56,91.56,0,0,0-14.15,0,45,45,0,0,0-7.07,1.21,58.5,58.5,0,0,0-6.79,2.21,106.67,106.67,0,0,0-12.78,6c-2.15,1.18-4.21,2.48-6.31,3.73.76-.79,1.65-1.49,2.38-2.31a79.55,79.55,0,0,1,5.93-6,61.28,61.28,0,0,1,13.89-9.23,53.12,53.12,0,0,1,16-4.39,131,131,0,0,1,16.83-.92l8.5.05c2.84,0,5.69,0,8.58-.14a26.5,26.5,0,0,0,4.42-.57c.73-.18,1.42-.38,2.14-.58l2.09-.7a33.86,33.86,0,0,0,7.88-4.07,29.9,29.9,0,0,0,6.5-6.16c.46-.59.85-1.23,1.28-1.84.21-.31.42-.63.61-.94l.54-1c.34-.66.7-1.32,1-2l.85-2.06.41-1,.32-1.06.61-2.12c.36-1.42.57-2.87.83-4.3s.26-2.89.31-4.34-.07-2.89-.17-4.32c-.42,1.4-.77,2.77-1.09,4.14s-.81,2.7-1.21,4l-.45,1.24c1-8.6,1.89-26.5-6.4-38.19-12.53-17.64-30.94-11-37-8.76h0c-8.56,2.89-11.28,7.81-12.06,11.42a12.83,12.83,0,0,0,1.43,9,23.47,23.47,0,0,1-11.27-8.61,13.49,13.49,0,0,1-2.07-11.67,15.73,15.73,0,0,1,4.06-6.69,18.25,18.25,0,0,0,.9,15.19l2.14,4.28-.45-4.77a25,25,0,0,1,5.78-17.44c4.41-5.29,10.63-8.31,18.48-9h.06c8.64-.45,24.62,2.23,34.39,25.18,10,23.42,9.61,45.09-.73,65.67a13.4,13.4,0,0,1-4.73,3.33,38.62,38.62,0,0,1-6.32,2.07c-2.17.54-4.38.95-6.61,1.28s-4.47.59-6.73.79c-4.5.39-9,.68-13.56.8-2.27.06-4.53.1-6.8.1s-4.54,0-6.81,0C393.37,417.7,394.5,417.85,395.64,418Zm-73.41,63h0a25.15,25.15,0,0,1-7.07-4.8c-1.07-1-2.1-2-3.09-3.11s-1.95-2.2-2.85-3.37c.77,1.25,1.62,2.47,2.5,3.66s1.81,2.34,2.81,3.45A27.32,27.32,0,0,0,321,482.2c.57,4.29-2.6,7.86-6.12,9.49a11.16,11.16,0,0,1-10.07-.05,7.83,7.83,0,0,0,4.7-.79,5.65,5.65,0,0,0,1.2-1.08l.08.09c.13-.14.21-.32.33-.46s.2-.26.29-.4a10,10,0,0,0,1.15-1.6,9.05,9.05,0,0,0,.93-2.83,11.69,11.69,0,0,0-.62-5.65,20.37,20.37,0,0,1-.84,5.31,7.43,7.43,0,0,1-.37.81C310,477.58,301,470.63,295.4,467.56a96.54,96.54,0,0,0-22.32-8.32c2.55.18,5.68.42,10,.75h0c5.31.45,23.64,4.12,32.18,9.48A113.14,113.14,0,0,0,303,460.3l.38-.22c7.27,3.16,26.43,7.28,32.39,8.52a21.9,21.9,0,0,1-12,.72c-1-.23-2-.51-3-.84a28.59,28.59,0,0,1-2.93-1.2,24.56,24.56,0,0,1-2.79-1.54,14.07,14.07,0,0,1-2.54-2,10.42,10.42,0,0,0,2.11,2.53,18.46,18.46,0,0,0,2.64,2,20.43,20.43,0,0,0,3,1.57,20.81,20.81,0,0,0,3.17,1.09,23.82,23.82,0,0,0,13.33-.55,29.38,29.38,0,0,0,6.11-2.81,24.21,24.21,0,0,0,2.77-2,16.4,16.4,0,0,0,2.4-2.52,11.22,11.22,0,0,0,2.37-6.65,10.56,10.56,0,0,0-.56-3.56,8.74,8.74,0,0,0-.39-.9,9.19,9.19,0,0,1,2.94.62,13.18,13.18,0,0,1,3.5,3c2.22,3.86-5.31,22.07-20.61,22.17,8.35,1,22.06-5,23.84-16.25a10.47,10.47,0,0,1,.26,4.87h0s-.05,0-.05.05c-.25,1.41-3.69,9.69-14.12,14.86C335,486.41,322.43,481.09,322.23,481ZM160.86,278.77c2.23-1.23,5.64-1.22,8.69,0s7.68,5.11,10.38,7.51c-.11.45-.17.71-.26,1.1a33.48,33.48,0,0,0-5.32-4l-4.58-2.92,3.4,4.23a12.17,12.17,0,0,1,1.75,3.2,14.26,14.26,0,0,0,3.77,5.52v.1l.26.21c.19.16.57.57,1,1.05a46.83,46.83,0,0,0,3.86,3.81,27.24,27.24,0,0,0,9.24,5.23c-2.79.56-6.42,1.35-10.44,2.24-3.69-2.15-6.42-7.41-7-11.13l-.09,0c-1.06-5.6-3.21-10.9-9-14.19a10.38,10.38,0,0,0-6.77-1.17A5.47,5.47,0,0,1,160.86,278.77Zm20.72,8.33c1.25-5,3.59-13.35,7.46-26.14a2.17,2.17,0,0,0,.17-.75,7.91,7.91,0,0,1,.21-1.45c2.6,2.93,3.65,9,4,16,.4,7.74,3.28,10.73,7.23,16.48a32.86,32.86,0,0,1,4.83,10.53l-1.58.19c-2.38.3-4.58.64-6.58,1v0l-.78.15h0a22.22,22.22,0,0,1-5.71-2c-.31-.15-.55-.35-.85-.51a27.39,27.39,0,0,1-4.47-3.07c-.38-.31-.77-.63-1.12-.94-1.23-1.14-2.35-2.27-3.09-3.07-.23-.26-.4-.43-.58-.62l-.22-.23.66-3.76h0c.11-.47.21-.92.35-1.48C181.53,287.33,181.55,287.22,181.58,287.1Zm-94.31-6.82,0,0L80.93,282l.1.06c-1,.32-1.92.66-2.88,1l-.06,0-2.36.87-1.29.47-3.51,1.29.09,0-.86.33c-1.64.65-3.34,1.31-3.77,1.39-.58-.08-1-.84-1-1.91,1.2-1.77,4.72-3.45,7.57-4.82.69-.33,1.34-.63,1.93-.94a15.42,15.42,0,0,0,2.5-1.74c.06,0,0,0,.08,0,1.42-1.1,10-6.88,8.9-7.47s-3.71,2.23-3.71,2.23l-6.4.37c-2.47.64-6.95,3.78-9.79,5.88-4.48,1.78-11.17,4.14-14.31,3.74-2.44-.32-3.42-1.31-3.74-1.72a1.85,1.85,0,0,1-.22-.39c2.52.69,8.35-.12,14.29-3a40.06,40.06,0,0,0,9.24-6.75,23.25,23.25,0,0,1,4-3.16c1.07-.46,11.84-1.52,21.42-2.29l.27,0,.21-.17c.88-.7,21.43-17.1,24.29-20.87.83-1.09,2.73-4.46,5.35-9.13,5.09-9.07,12.89-22.89,18.64-30.07a25.57,25.57,0,0,1,.59,3.65,21.94,21.94,0,0,1-.58,2.58,15.5,15.5,0,0,1-1.63,3.46,8.49,8.49,0,0,0,2.79-2.92,14.86,14.86,0,0,0,1.49-3.79c.35-1.29.6-2.57.86-3.82l.79-3.73h0c5-16.92,6.31-46,6.89-58.41.12-2.64.21-4.54.29-5.57.75-9.4,6.22-14.51,16.61-15.69a7.9,7.9,0,0,1,3.16,1c.58.29,1.15.61,1.72,1l1.75,1.07a11.51,11.51,0,0,0-2.66-3.25c-.16-.13-.38-.22-.55-.34,1.51-.21,2.87-.46,4.25-.71a0,0,0,0,1,0,0l0,0a114.74,114.74,0,0,0,14-3.39c.22.54.42,1.1.66,1.62.48,1,1,2,1.47,2.92s1,1.92,1.47,2.89a11.5,11.5,0,0,1,1.11,3,11.74,11.74,0,0,0-.69-3.19c-.34-1-.7-2.06-1.07-3.09s-.72-2-1-3.06a22.08,22.08,0,0,1-.77-3h0l-1.4-7.12c3.86-1.3,7.7-3.59,12.84-8.65a28.59,28.59,0,0,0,3.59-1.21c-3.71.45-7.37,1.12-11,1.87-1.83.38-3.65.78-5.47,1.24s-3.59,1-5.38,1.46c-.89.23-1.78.45-2.66.6a7.84,7.84,0,0,1-2.49.1,4.28,4.28,0,0,1-2-1,3.65,3.65,0,0,1-1.22-1.84,3.47,3.47,0,0,1,.16-2.17,4.9,4.9,0,0,1,.24-.52l.07-.11.09-.18a2.56,2.56,0,0,0,.22-.48,3.78,3.78,0,0,0,.11-1.81A6,6,0,0,0,182,93c2.85-.66,4.27-2.72,4.07-3.87a2,2,0,0,1-1.56,1.21A11.38,11.38,0,0,0,181,90c1.91-.23,4.25-1.79,6-2.31a9.78,9.78,0,0,1,2.14-.35c.73.89,1.52,1.61,2,1.15,1.53-1.56-2.09-3.26-3.71-3.65,0,0,.4.65.89,1.38a7.46,7.46,0,0,1-5.62-1.47c-1.27-.77-2.19-2.12-3.47-3a5.17,5.17,0,0,0,.8-1.32,3.21,3.21,0,0,0,0-2.26l-.15-.38-.4-.17c-.46-.21-.86-.47-1.3-.69l.22-.22c.17-.19.32-.39.46-.58l.19-.25c.05-.05.07-.12.19-.13a1.56,1.56,0,0,1,.76.1,5.49,5.49,0,0,1,.73.36,5.28,5.28,0,0,1,1,.8,9.36,9.36,0,0,0-.77,1,4.28,4.28,0,0,0,2.72-1.43,4.81,4.81,0,0,0,.85-1.29,3.39,3.39,0,0,0,.31-1.55c-.41.36-.76.69-1.09,1s-.64.67-.95,1l-.36.4a9.66,9.66,0,0,1-1.47-.44c-.54-.21-1-.41-1.63-.67a1.23,1.23,0,0,0-.62,0,2.64,2.64,0,0,0-.52.17,2.75,2.75,0,0,0-.78.53,4,4,0,0,0-.44.57c-.11-.07-.24-.12-.35-.18a4.58,4.58,0,0,1-1.86-2,1.83,1.83,0,0,1,0-1.09l.09-.3c0-.1.1-.21.14-.31a4.4,4.4,0,0,1,.36-.61c.28-.4.6-.77,1-1.26s.74-1,1.08-1.45a39.77,39.77,0,0,0,3.34-6.18c.48-1,.92-2.13,1.35-3.19a5.5,5.5,0,0,0,.09-4c-.14-.36-.22-.52-.31-.79s-.16-.49-.24-.75c-.14-.51-.27-1.07-.36-1.58a3.19,3.19,0,0,1,0-1.34,3.69,3.69,0,0,1,.21-.64c.05-.1.1-.2.16-.3l.22-.37a28,28,0,0,0,1.57-3.15,24.1,24.1,0,0,0,1.16-3.35,13,13,0,0,0,.35-1.78c.07-.59.14-1.13.2-1.69a13.72,13.72,0,0,1,.71-3.21,23.8,23.8,0,0,1,3.56-5.71A29.56,29.56,0,0,0,187,33.47c-.27.29-.44.68-.69,1l0-.09-.3.1a1.74,1.74,0,0,0,.52-.32,3.92,3.92,0,0,1-1.56.47c-.55.08-1.1.13-1.65.16-1,0-2.08,0-3.1,0-4.38-.61-7.33-2.36-8.76-5.18a10,10,0,0,1-.83-5.86c.91,2.61,3.24,5.29,8.84,7.08v0c.06,0,.11.08.17.1a14.8,14.8,0,0,0,2.83.47,17.55,17.55,0,0,0,2.81,0,15.49,15.49,0,0,0,2.72-.48,24.15,24.15,0,0,1-2.71-.22,24.59,24.59,0,0,1-2.61-.52,12.65,12.65,0,0,1-2.42-.88,1.29,1.29,0,0,1-.16-.09c-2.14-1-3.61-3.61-3.74-6.68A12.43,12.43,0,0,1,180.48,13c-2.8,7.23,2.28,13.89,2.34,14l1.58,2,0-2.56A14.34,14.34,0,0,1,186,21.27a10.05,10.05,0,0,0,.53,3.5,13.6,13.6,0,0,0,1.88,3.65A9,9,0,0,0,191,30.58a114.66,114.66,0,0,0,14.25,24.56c7.7,9.88,13.63,9.57,15.61,9.11a9.49,9.49,0,0,0,.21,3.36,6.13,6.13,0,0,0,1.7,3,10.23,10.23,0,0,1-.44-6.34,11.12,11.12,0,0,1,1.09-2.92,6.81,6.81,0,0,1,2-2.23,5.07,5.07,0,0,1,7.6,1.81,11.1,11.1,0,0,1,1.08,2.92,19.4,19.4,0,0,1,.34,6.31A14,14,0,0,1,232.09,76a10.32,10.32,0,0,1-1,1.07,8.11,8.11,0,0,0-.23-1.63,8.43,8.43,0,0,0-.59-1.64,5.73,5.73,0,0,0-.73-1l.22-.23a13.17,13.17,0,0,0,1.38-1.67,11.14,11.14,0,0,0,1-2,9.32,9.32,0,0,0,.54-2.17,7.08,7.08,0,0,0-.12-2.25,5,5,0,0,0-2-2.93,7.76,7.76,0,0,1,1.85-.73,5.14,5.14,0,0,0-3.89,0,7.78,7.78,0,0,0-3.21,2.39,8,8,0,0,0-1.69,3.62,4.91,4.91,0,0,0,.75,3.81,7.6,7.6,0,0,1,.6-3.44,11.15,11.15,0,0,1,.69-1.14c1,2.73,2.78,3.28,2.78,3.28S228.42,71,225.87,72a5.82,5.82,0,0,0-2.37,1.44c-.47-.57-1-.92-1.42-.7s-.45,1.17,0,2,1.25,1.3,1.72,1,.27-1,0-1.7c0,0,0,0,.05,0a4,4,0,0,1,2.27-1.41c1.23-.34,3.28-1.2,3.69-3.43A5.11,5.11,0,0,0,227.1,64,11.35,11.35,0,0,1,228.24,63a2,2,0,0,0,2.53.45,14.81,14.81,0,0,1-1.64-1.27s.05-.06.09-.08a9,9,0,0,1,1.1-.44,6,6,0,0,1,1.34,3,8.15,8.15,0,0,1-.62,3.83,14.11,14.11,0,0,1-2,3.47,14.32,14.32,0,0,0-1.2,1.79,3.34,3.34,0,0,0-.4,2.13,5.69,5.69,0,0,1,1.92-2.91,11.23,11.23,0,0,1,.45,2.65,19,19,0,0,1-.16,2.77,5.93,5.93,0,0,1-2.42,1,7.24,7.24,0,0,1-3-.28,17,17,0,0,1-3-1.37,8.56,8.56,0,0,0,2.65,2.11c.26.13.53.24.8.36s.48.14.73.19l-.1,2c0,1,0,2.92.13,5.23l-12.22,38.2L225.74,92c.69,10,2.27,23.9,4.75,25.89,1.32,1.07,5.78,1.36,14.21,1.83,3.85.21,8.31.48,12.78.89-3,.8-6,1.55-8.88,2.53-4.36,1.46-8.67,3.06-13,4.66-2.15.8-4.3,1.61-6.43,2.44a64.33,64.33,0,0,1-6.45,2.29c-.55.16-1.11.31-1.67.44s-1.14.22-1.72.33a10.29,10.29,0,0,0-3.39,1.1,7.45,7.45,0,0,0-2.79,2.48,5.54,5.54,0,0,0-.75,3.55,8.54,8.54,0,0,1,1.71-2.8,9,9,0,0,1,2.62-1.65c1-.42,2-.9,3-1.41A16.7,16.7,0,0,1,223,133.4c2.22-.66,4.41-1.36,6.6-2.08s4.32-1.55,6.47-2.35c4.3-1.58,8.6-3.17,12.94-4.61,3.9-1.28,7.84-2.44,11.81-3.4,8.77,1,16.91,2.75,19.57,6.31,3.42,4.58,6.24,18.71,9.22,33.66,2.79,14,5.87,29.19,10,39.55a107.06,107.06,0,0,0,2.7,16.11,40,40,0,0,1,.39-9.68,20.24,20.24,0,0,0,2.19,3.09c11.86,13.16,22.07,38,27.21,55.22a156.62,156.62,0,0,0,10.39,26.1c.44.89.86,1.73.91,1.91.41,1.89,8,5.08,8.07,5.11,2.14.86,15.21,1.47,20.37,1.55,2.08,1.07,5.77,2.55,9.21,3.87l-3.58-.39-5-.56c-1.68-.16-3.37-.31-5.08-.39a41.85,41.85,0,0,0,4.85,1.63c1.64.45,3.3.85,5,1.16s3.36.6,5.07.76a29.6,29.6,0,0,0,5,.11l1.93.69.16.05h.15a37.31,37.31,0,0,1,7.61.57c-2.43,1.45-13.37,3-21.93,1.75v0a41.35,41.35,0,0,0-5.22-1.62c-2-.47-4-.84-6.07-1.14s-3.81-.48-5.72-.63a3,3,0,0,0-1.1-1.4,6.33,6.33,0,0,0-1.27-.69,15.63,15.63,0,0,0-2.57-.82A44.07,44.07,0,0,0,348,302a41.85,41.85,0,0,1,4.87,1.71,14.61,14.61,0,0,1,2.23,1.15,5.53,5.53,0,0,1,.9.71c.07.07.05.11.1.17a22.85,22.85,0,0,0-4.53.06c2,.14,4,.3,6.07.58s4,.64,6,1.07,3.95.91,5.88,1.5a42.3,42.3,0,0,1,5.26,1.94h0a1.52,1.52,0,0,1,1.05,1.88c-.12.75-.62,1.48-1.24,1.5-4.83-1.93-16.16-2.31-24.54-2.48,0,0,0,0,0-.06a26.14,26.14,0,0,0-12.93-5.79,33.9,33.9,0,0,1-3.29-8.38c-1.24-6-5.62-11.38-15-21.15-4.25-4.44-9.21-11.36-13.58-18.35l1.51-1c.77,1.07,1.51,2.15,2.29,3.21-.7-1.12-1.33-2.27-2-3.4l3.05-2,4.45-2.94-3.27.17a44.25,44.25,0,0,0-6.54.86h0c-1.64-2.75-3.34-5.47-4.9-8.26-3-5.26-5.76-10.6-8.29-16.06h0c-1.13-2.39-2.37-4.52-3.65-6.71-.87-1.48-1.77-3-2.65-4.67-3.31-6.21-14.32-37.1-14.44-37.45h0q-1.78-5.15-3.65-10.28c-.63-1.71-1.26-3.41-1.91-5.11-.54-1.39-1.1-2.76-1.68-4.14a59.85,59.85,0,0,0,9,8.4c-6.45-8.84-10.42-14.35-11.91-13.7-.4.16,0,1.12.71,2.36L261,157a28.84,28.84,0,0,1-1.76-2.32c-.55-.8-1.08-1.62-1.56-2.48s-.92-1.74-1.33-2.64c.27.95.57,1.9.93,2.83a28.71,28.71,0,0,0,1.19,2.74,29.47,29.47,0,0,0,1.44,2.65c.28.45.6.87.9,1.3l-.88,5.09q-.33-.18-.66-.33c-.35-4.29-3.85-6.87-7.84-7.71l.08-.1-2.78-2.32a6.36,6.36,0,0,0-5.53-1.3c-7.93,1.91-15.18,6.72-21.37,14l-.19.16,0,0a62.54,62.54,0,0,0-6.05,8.53,25.65,25.65,0,0,1-3.53,4.49,18.37,18.37,0,0,1-.62-3.19,29.71,29.71,0,0,1,.23-5.4,30.62,30.62,0,0,1,1.15-5.34,15,15,0,0,1,2.44-4.9,15.51,15.51,0,0,0-3.13,4.63,31.27,31.27,0,0,0-1.92,5.32,32.29,32.29,0,0,0-1,5.65,19.51,19.51,0,0,0,.34,5.12,14.16,14.16,0,0,1-3.17,2.12l-.54.2,0,.57a5.24,5.24,0,0,0,.16,1c-.06,0-.09-.06-.15-.06a2,2,0,0,0-1,.33c0-.16,0-.33,0-.5v-.54l-3.18-1.06a19,19,0,0,0,.81-5.51,26.57,26.57,0,0,0-.94-6.61,24.91,24.91,0,0,0-2.51-6.08,18.32,18.32,0,0,0-4.15-5,17.76,17.76,0,0,1,3.49,5.32,23.75,23.75,0,0,1,1.72,6.05,24.79,24.79,0,0,1,.15,6.2,16.63,16.63,0,0,1-.92,3.23c-.74-1.44-1.47-2.88-2.3-4.27-1.18-2-2.47-3.88-3.83-5.75A59.57,59.57,0,0,0,183.81,161a44.07,44.07,0,0,0-5.65-4.11,27.09,27.09,0,0,0-6.44-2.94,12.88,12.88,0,0,0-1.83-.37,8.2,8.2,0,0,0-1,0l-.25,0a11.87,11.87,0,0,0-1-2c-.58-.84-1.21-1.61-1.8-2.39a20.29,20.29,0,0,1-3-4.91,10.22,10.22,0,0,1-.56-5.64,15.65,15.65,0,0,1,2.22-5.41,16,16,0,0,0-2.66,5.31,11,11,0,0,0,.16,6,21.22,21.22,0,0,0,2.74,5.39c.55.84,1.11,1.65,1.59,2.47a8.18,8.18,0,0,1,.78,1.87,12.65,12.65,0,0,0-2.43,1.61,12.87,12.87,0,0,0-2.43,2.79,5.3,5.3,0,0,0-.76,1.95,2.43,2.43,0,0,0,.16,1.35h0c-.11.08-.26.15-.37.24a11.77,11.77,0,0,0-1.21,1,12.67,12.67,0,0,0-2.06,2.42,9,9,0,0,0-.77,1.44,3.34,3.34,0,0,0-.28,2,3.22,3.22,0,0,0,1,1.78c.09.08.19.11.27.19-.5.37-1.11.59-1.44,1.11a6.9,6.9,0,0,0-1,3.2,11.35,11.35,0,0,0,.27,3.15,13.6,13.6,0,0,0,.85,2.39,4.52,4.52,0,0,0-.7,1,6.23,6.23,0,0,0-.38,1.82,9.88,9.88,0,0,0,.51,3.42,14.37,14.37,0,0,0,1.42,3,19.71,19.71,0,0,0,2,2.6,22,22,0,0,0,1.86,1.62c0,4,2.57,10.19,6,13-1.59,6-3.9,13.72-6.21,17.38-4,6.38-27.83,25.05-33.51,29.33-8.82,6.65-19.92,15.46-22.7,19.74s-5.66,4.83-11.17,5.26A43.92,43.92,0,0,0,87.27,280.28Zm51.79-95.23c3-3.36,4.75-8.11,5.72-12.83l2,2.79c-.21,4.22-.82,8.86-2.41,11.26-2.18,3.26-7.28,6.58-12.09,6.49a9.29,9.29,0,0,1-7-3.3A13.52,13.52,0,0,0,139.06,185.05Zm-9.24-13.15a12.29,12.29,0,0,1-4.49-.29c.17,0,.34.09.51.08a11.45,11.45,0,0,0,3.49-.69,13,13,0,0,0,3.08-1.65,13.61,13.61,0,0,0,4.4-5.2,14.47,14.47,0,0,0,1.43-6.48,15.73,15.73,0,0,1-2.2,6.05,13.65,13.65,0,0,1-4.45,4.37c-.4.24-.87.18-1.28.37.27-.21.51-.23.78-.46a11.78,11.78,0,0,0,4-10.85A16.88,16.88,0,0,0,126,144.84c-9.07-4.17-12.57-10-10.39-17.18,2.79-9.27,13.6-18,22.64-22.27a26.49,26.49,0,0,0,0,3.8A34.54,34.54,0,0,0,128,120.08a27.11,27.11,0,0,0-3.14,7.57,17.07,17.07,0,0,0-.38,2l-.12,1-.06,1a28.38,28.38,0,0,0,.06,4.12,17.79,17.79,0,0,0,2.64,7.89,25.85,25.85,0,0,0,2.46,3.29,40.45,40.45,0,0,0,2.74,3,33.59,33.59,0,0,0,3,2.7c1.06.83,2.14,1.61,3.16,2.43a13,13,0,0,1,2.73,2.76,10,10,0,0,1,.8,1.83C139.45,169.5,132.22,171.61,129.82,171.9ZM157.89,70.27c5.09-4.37,9.88-8.5,13.43-12.59,6.12-7,8.38-12.61,9.21-17.44l4.45-3.8a15.5,15.5,0,0,0-1.1,3.31c-.13.57-.21,1.16-.31,1.7a11,11,0,0,1-.39,1.58,31.18,31.18,0,0,1-2.8,6l-.22.37a3.21,3.21,0,0,0-.24.45,5.68,5.68,0,0,0-.34,1,5.11,5.11,0,0,0-.08,2.06c.11.62.23,1.18.39,1.77.08.29.17.58.27.88s.25.63.31.81a3.56,3.56,0,0,1-.09,2.68c-.43,1-.88,2.08-1.35,3.11A38.93,38.93,0,0,1,175.81,68c-.32.44-.64.88-1,1.3a17,17,0,0,0-1.14,1.4,6.5,6.5,0,0,0-.51.86A3.35,3.35,0,0,0,173,72l-.17.51a4.09,4.09,0,0,0,.07,2.27A5,5,0,0,0,174,76.6c.23.25.48.44.72.66s.51.39.77.56a19,19,0,0,0,2.64,1.38,1.12,1.12,0,0,1,0,.53,3.2,3.2,0,0,1-.6,1,4.47,4.47,0,0,1-.43.44c-.08.06-.16.14-.24.19a3,3,0,0,0-.36.28,1.8,1.8,0,0,0-.46.53c-.05.11-.11.21-.16.32l-.09.32a2.18,2.18,0,0,0-.06.61,2,2,0,0,0,.05.55,5.64,5.64,0,0,0,1.94,3.1c.31.28.79.31,1.17.52l-.22.13a3.86,3.86,0,0,0-.91,1,3.82,3.82,0,0,0-.31.68c0,.12-.06.25-.09.38l0,.21a2.52,2.52,0,0,0,0,.28l0,.35.27.26c.67.63,1.34,1.28,2,1.92.16.16.33.33.45.47l.06.07,0,0,.11.23a5,5,0,0,1,.33,1.1,2.2,2.2,0,0,1,0,.94.67.67,0,0,1-.07.17l0,0-.05.1-.11.18a5.51,5.51,0,0,0-.33.75,5.31,5.31,0,0,0-.2,3.3,5.49,5.49,0,0,0,1.82,2.73,6,6,0,0,0,2.93,1.4,9.71,9.71,0,0,0,3.07-.15c1-.18,1.88-.42,2.79-.67s1.54-.45,2.32-.69l1.59,8.1a7.7,7.7,0,0,0-3.38,4.78c-2.42.69-5,1.31-7.94,1.89a20.75,20.75,0,0,1-4.24-4.91,24.19,24.19,0,0,1-2.61-6.48,43.68,43.68,0,0,1-1.11-7c-.2-2.39-.23-4.8-.22-7.21-.21,2.4-.38,4.81-.38,7.23a44.62,44.62,0,0,0,.55,7.28,25.56,25.56,0,0,0,2.2,7.09,21.82,21.82,0,0,0,3.27,4.47c-1.23.21-2.41.44-3.73.61a43.9,43.9,0,0,1-2.75-11,80.9,80.9,0,0,1-.3-12.37,82,82,0,0,0-.88,12.45A45.86,45.86,0,0,0,174.38,119l-.28,0c-.13,0-.21.07-.34.08s-.09,0-.15,0v.05a29.31,29.31,0,0,0-5.91,1.36,50.45,50.45,0,0,1-1.55-7.87,61.89,61.89,0,0,1-.33-8.92,60.28,60.28,0,0,1,1-8.88,58.65,58.65,0,0,1,2.34-8.77A26.64,26.64,0,0,0,165,94.39a35.36,35.36,0,0,0-1.52,9.24,36.55,36.55,0,0,0,.86,9.33,25.77,25.77,0,0,0,3.09,7.63c-7.16,2.51-11.22,7.76-11.87,15.86-.09,1.06-.18,3-.3,5.63-.15,3.35-.38,8-.7,13.18l-.28.46a16.84,16.84,0,0,1-1.74-2.29,23.06,23.06,0,0,1-2-5.47,35.88,35.88,0,0,1-.64-12,36.79,36.79,0,0,0-1.13,12.27,25.89,25.89,0,0,0,1.31,6.25,19.94,19.94,0,0,0,2.36,4.27c-.26.46-.48,1-.74,1.54a31.31,31.31,0,0,1-4-12.77,50.48,50.48,0,0,1,1.52-15.88,50.7,50.7,0,0,0-2.41,15.93,34.15,34.15,0,0,0,1.13,8.08,30.44,30.44,0,0,0,2.79,6.65,22.82,22.82,0,0,0-1.57,5.24c-.4-.94-.67-1.71-.67-1.72h0c-.38-1.13-.78-2.25-1.19-3.37-.52-1.4-1-2.83-1.38-4.27a48.07,48.07,0,0,1-1.73-8.8c-.07-.75-.11-1.5-.13-2.25a22.64,22.64,0,0,0-.18-2.32,38,38,0,0,0-.93-4.51,74.57,74.57,0,0,0-2.9-8.66c.43,1.46.81,2.93,1.16,4.41s.7,2.95,1,4.43a42.54,42.54,0,0,1,.59,4.44,20.34,20.34,0,0,1,0,2.21c0,.78,0,1.55,0,2.33a35.77,35.77,0,0,0,.45,4.62c.07.45.2.88.29,1.32l-.5-1h0c-.52-1-.94-2.07-1.51-3-1.09-1.77-2.24-3.48-3.34-5.21s-2.15-3.44-3-5.23a20.79,20.79,0,0,1-2-5.5,23,23,0,0,1-.3-2.94,29.63,29.63,0,0,1,0-3,26.4,26.4,0,0,1,1-5.85,25.22,25.22,0,0,1,5.64-9.78,4.69,4.69,0,0,0,2,2,18.77,18.77,0,0,0,.46,5.63c1.75,6.19,5.38,6.13,7.14,5.41a20.67,20.67,0,0,0,2.3,4.52,45.89,45.89,0,0,1-2-6.94A33,33,0,0,1,149,121a24.64,24.64,0,0,1-.11-3.54,35.1,35.1,0,0,1,.92-7,59.18,59.18,0,0,1,2.13-6.93,23.65,23.65,0,0,0-3.47,6.55,24.21,24.21,0,0,0-1.23,6.62C143.93,107,150.8,90.37,163.67,77c-15.87,15.28-21,28.49-22,37-2.64-7.39-2.34-20.85,16.72-38.68-13,11.06-18.53,16.88-19.91,27.82-1.13-1.56-3.94-6.8,1.68-15.15C144.23,82,151.18,76.06,157.89,70.27ZM179.16,85c-.44-.57-.54-1.23-.23-1.47s.93,0,1.37.59.54,1.23.23,1.47S179.6,85.53,179.16,85Zm-39.71,28.85a18.63,18.63,0,0,0-7.21,9.36,25.33,25.33,0,0,0-1.32,6.25,27.55,27.55,0,0,0,.16,6.41,22,22,0,0,0,2.12,6.11,54,54,0,0,0,3.17,5.44c1.13,1.74,2.31,3.43,3.43,5.13a29.94,29.94,0,0,1,2.78,5,17.29,17.29,0,0,1-.56,1.8,8,8,0,0,0-.49-1.67,12.93,12.93,0,0,0-2.55-3.19c-2-1.84-4-3.49-5.74-5.44a42,42,0,0,1-4.74-6.19,16.28,16.28,0,0,1-2.29-7.14,24.8,24.8,0,0,1-.09-3.86l0-1,.1-.94c0-.63.21-1.25.31-1.89a28.5,28.5,0,0,1,2.68-7.24,42.13,42.13,0,0,1,9-11.44A11.12,11.12,0,0,0,139.45,113.81ZM257,45.07c5.8,11.43,10.72,19.34,14.28,23.05-.16,0-.33,0-.49-.07a15.85,15.85,0,0,1-4.23-1.83,18.71,18.71,0,0,1-3.62-3A27.47,27.47,0,0,1,260,59.48a28.35,28.35,0,0,0,2.59,4.05A19.26,19.26,0,0,0,266.06,67a16.88,16.88,0,0,0,4.33,2.37,21.24,21.24,0,0,0,3.76.91c.07,0,.18.16.25.18a2.2,2.2,0,0,0,.94.09c1.51.19,11,1.1,18.6-5.81.2,4.09-1,7.29-3.67,9.53-3.78,3.2-9.76,3.61-13.72,2.36a33.25,33.25,0,0,1-10.14-5,30.33,30.33,0,0,1-4.32-3.76,21.88,21.88,0,0,1-3.41-4.63,22.27,22.27,0,0,0,3.07,4.92,31.15,31.15,0,0,0,4.11,4.17A37.9,37.9,0,0,0,269.58,75,48,48,0,0,0,273.65,82a47.27,47.27,0,0,0,6.08,7.14c.56.55,1.19,1,1.78,1.57s1.28,1,1.92,1.44a22.64,22.64,0,0,0,4.27,2.26,20.74,20.74,0,0,0,2.31.75c.38.12.78.17,1.17.26s.79.17,1.19.21a32.79,32.79,0,0,0,4.73.32v-.42a17.63,17.63,0,0,0,2.72.07,35.89,35.89,0,0,1-4.1,1.56,20.49,20.49,0,0,1-3.87.6,14.85,14.85,0,0,1-3.83-.21,16,16,0,0,1-7-3.16,34.42,34.42,0,0,1-5.58-5.78,20.33,20.33,0,0,0,4.67,6.84,14.82,14.82,0,0,0,7.56,3.86,16.33,16.33,0,0,0,4.3.14,17.42,17.42,0,0,0,4.12-1A21.19,21.19,0,0,0,301,95.66a23.16,23.16,0,0,0,8.38-3.11,12.72,12.72,0,0,1-4,8.72,17.85,17.85,0,0,1-13.91,4.62,15.6,15.6,0,0,1-5.63-1.76A22,22,0,0,1,281,100.5a34.37,34.37,0,0,1-4-4.73,52.64,52.64,0,0,1-3.25-5.33A54.42,54.42,0,0,0,276.57,96a35,35,0,0,0,3.74,5.1,22.93,22.93,0,0,0,4.83,4.15l-.27,0,6.18,2.38c18.69,7.18,27.46,20.58,27.88,30.67.14,3.5-1.27,6.86-3.4,10.12,3.58-15.59-13-32.68-19.17-35.45,11.84,8.78,17.95,23.6,15.49,36.56-.52-18.17-10.79-30.76-16.75-33.88,6.33,4.61,12.13,18.17,12.73,25.84.57,7.27-.5,13.59-6.21,21.57-.08-.8-.18-1.6-.23-2.41-.1-1.19-.16-2.39-.21-3.6s-.09-2.42-.12-3.64a67,67,0,0,0-1,7.22,35.94,35.94,0,0,0,.08,6.95l-.06.11.07.35h0a24.26,24.26,0,0,0,4.41,10.24c-6.4-3.74-9.17-9.59-10.93-15.67a22.84,22.84,0,0,0,2.5-4.59,31.8,31.8,0,0,0,.61-15.69c-.32-1.3-.74-2.52-1.17-3.74s-.92-2.4-1.41-3.59a102.11,102.11,0,0,0-7-13.63,78.11,78.11,0,0,0-9.19-12.2,77,77,0,0,1,8.55,12.58,100.9,100.9,0,0,1,6.3,13.8c.42,1.18.83,2.37,1.2,3.57.19.6.35,1.21.53,1.8s.31,1.21.41,1.8a29,29,0,0,1,.27,7.33,28.32,28.32,0,0,1-1.52,7.12,19,19,0,0,1-2.27,3.75c0-.11-.05-.22-.07-.33-3.16-15.82-5.89-29.47-9.55-34.38-1.92-2.57-6.06-4.26-11.15-5.44a27.83,27.83,0,0,0,.3-5.34c-.11-2-.33-4-.63-6-.6-3.92-1.44-7.76-2.37-11.57s-2-7.58-3.1-11.33-2.3-7.47-3.58-11.16Q262.77,81,264,86.77c.82,3.81,1.57,7.64,2.21,11.47s1.17,7.68,1.45,11.51a54.77,54.77,0,0,1,.17,5.71,24,24,0,0,1-.59,4.6c-3.9-.68-8.15-1.14-12.38-1.47l0-.66c0-.5.11-1,.18-1.53.15-1,.34-2.05.55-3.08.42-2.06.92-4.1,1.48-6.14s1.17-4.05,1.84-6.05a59.66,59.66,0,0,1,2.32-5.9,57.94,57.94,0,0,0-2.73,5.74q-1.23,2.94-2.28,6c-.71,2-1.36,4-1.93,6.08-.29,1-.56,2.07-.79,3.12-.11.53-.22,1.06-.31,1.61l-.1.74-4.39-.3a22,22,0,0,1,.28-4.33c.29-1.74.7-3.46,1.16-5.17s1-3.42,1.6-5.09A25.61,25.61,0,0,1,254,98.71a26.9,26.9,0,0,0-2.6,4.7c-.74,1.63-1.41,3.3-2,5a53.27,53.27,0,0,0-1.62,5.16,24.64,24.64,0,0,0-.66,4.51l-2.27-.13-.66,0c.34-1,.69-2,1.08-3l1.64-4c1.1-2.7,2.16-5.43,3.2-8.18s2.06-5.49,2.93-8.3c.43-1.41.86-2.81,1.18-4.26.15-.72.3-1.44.4-2.17a7.79,7.79,0,0,0,0-2.21,8.26,8.26,0,0,1-.28,2.16c-.17.71-.39,1.4-.62,2.09-.48,1.38-1,2.74-1.55,4.08-1.12,2.7-2.3,5.37-3.5,8s-2.44,5.31-3.59,8c-.58,1.34-1.12,2.71-1.66,4.09-.27.68-.51,1.38-.75,2.09-.15.48-.28,1-.41,1.47-5.1-.29-9.81-.63-10.61-1.29-.62-.49-1.22-2.43-1.77-5.18a10.47,10.47,0,0,0,2.65-2.18,15.29,15.29,0,0,0,2.16-3.44,25,25,0,0,0,2-7.63,38.48,38.48,0,0,0,.11-7.81c-.05-1.3-.26-2.58-.42-3.87s-.44-2.55-.65-3.82c.14,1.29.33,2.56.43,3.85s.21,2.57.2,3.86a39.12,39.12,0,0,1-.55,7.66,23.85,23.85,0,0,1-2.37,7.16,13.93,13.93,0,0,1-2.13,3,8.7,8.7,0,0,1-1.81,1.33c-.12-.72-.25-1.41-.37-2.2a4.59,4.59,0,0,0,1.35-.73,7.43,7.43,0,0,0,1.34-1.78,15.85,15.85,0,0,0,1.41-3.89,36.1,36.1,0,0,0,.85-7.92,52.87,52.87,0,0,0-.53-7.86,43.9,43.9,0,0,0-1.3-5.41c0-.17-.06-.2-.09-.39-.13-.41-.17-.85-.31-1.26a12.58,12.58,0,0,0,1.26-1.27,14.73,14.73,0,0,0,2.64-6.33,19.92,19.92,0,0,0-.39-6.8,12.12,12.12,0,0,0-1.24-3.23,6.91,6.91,0,0,0-2.47-2.57,6,6,0,0,0-3.5-.76,7.28,7.28,0,0,0-3.38,1.14,9.43,9.43,0,0,0-2.14,2.27,27.31,27.31,0,0,1-15.08-6.88c-5.62-5.35-11.41-17.06-13.87-22.26L193,29.79a6.45,6.45,0,0,1-.43-2.36,14.06,14.06,0,0,1,.24-2.63c.14-.76.33-1.52.54-2.27a60.81,60.81,0,0,0,2.56,9.5c.79,2,1.67,4.06,2.66,6a40,40,0,0,0,3.4,5.69,35.78,35.78,0,0,0,4.34,5A35.51,35.51,0,0,0,211.46,53l.68.47.71.42c.48.28.94.58,1.43.84,1,.5,1.94,1,3,1.44a34.71,34.71,0,0,0,6.21,2,46.35,46.35,0,0,1-11-6.5,46.53,46.53,0,0,1-8.61-9.23,49.7,49.7,0,0,1-6.21-11.07,56.41,56.41,0,0,1-2-6.06,44.12,44.12,0,0,1-1.23-6.22l-.36-3a96.81,96.81,0,0,1,11.27-1.48,77.65,77.65,0,0,1,11.36,5.67c1,.63,2,1.31,3,2s2,1.38,2.88,2.12A58.87,58.87,0,0,1,228,29a71,71,0,0,1,4.88,5.23,62.25,62.25,0,0,1,4.34,5.68,42.86,42.86,0,0,1,5.93,13.06,31.71,31.71,0,0,0-4.34-14,48.46,48.46,0,0,0-4.18-6.14,66.38,66.38,0,0,0-5-5.51,53.35,53.35,0,0,0-12-8.62,48.29,48.29,0,0,0-11.17-4.14c4.13-.32,9-.59,15.07-.77l1.35,0c6-.2,8.52-.7,11.38-2.29C236.49,11.52,242.41,16.29,257,45.07Zm18.64,33a42.53,42.53,0,0,0,9.82,12.77c-.28-.17-.58-.28-.86-.45-.59-.45-1.21-.84-1.79-1.31s-1.16-.93-1.71-1.44-1.09-1-1.63-1.55l-1.57-1.63c-.51-.56-1-1.14-1.49-1.71s-1-1.16-1.48-1.75c-1.57-1.85-3.12-3.76-4.73-5.64A32.46,32.46,0,0,0,275.65,78.11ZM309.71,182.4c.11,0,.22,0,.33.07.29.08.46.24.76.32l0-.15c5.52,1.69,11.36-.52,14.24-2-1,3.16-4.18,9.23-14.21,9.55h-.61c-11.12,0-14.56-9.7-15.35-12.64-.09-.42-.19-.82-.28-1.24l-.62-3.24-.05.16c-.58-2.7-1.13-5.4-1.67-8.09.11-.13.13-.31.24-.44,2.37,7.42,6.51,14.27,16.86,17.48C309.5,182.25,309.59,182.35,309.71,182.4ZM231.78,78.08c0,.1,0,.21,0,.31a1.7,1.7,0,0,0-.09-.24Zm.58,7.08c.08,2.57.07,5.14-.1,7.69a44.24,44.24,0,0,1-1,7.5,15.34,15.34,0,0,1-1.19,3.42c-.29.62-.79.87-1.22,1.26-.74-5.41-1.29-11.55-1.55-16.38,1.5-1.2,4-2.45,4.8-6.81C232.17,82.94,232.32,84.06,232.36,85.16ZM187.6,18.5c.65-.76,2.42-1.6,6.08-2.38l-1.13,2.7c-.38.94-.69,1.83-1,2.77a25.38,25.38,0,0,0-.7,2.86,15.6,15.6,0,0,0-.29,3c0,.11.06.23.06.35-.22-.23-.51-.32-.71-.58a11.82,11.82,0,0,1-1.73-3.09,14.76,14.76,0,0,1-.89-3.44A7.57,7.57,0,0,1,187.6,18.5ZM348.83,313.06c2.17,2,4.6,5.25,3.8,9.74s-2.72,7.8-5.66,9.65a13.66,13.66,0,0,1-9.53,1.5c3.25-2.89,2.79-9.43,2.76-9.77h0a18.24,18.24,0,0,0-1-4.58,12.84,12.84,0,0,0-1.34-2.28v0h0a10.49,10.49,0,0,0-1-1.78,8.71,8.71,0,0,0-4-2.47,11.54,11.54,0,0,0-4.55-.35c1.49.61,2.85,1.07,4,1.7a10.24,10.24,0,0,1,1.9,1.47,12.64,12.64,0,0,0-2.53-1,12.18,12.18,0,0,0-1.71-.11,16.69,16.69,0,0,0-1.72.17l-.84.19-.42.1-.41.15-.81.31a7,7,0,0,0-.77.39,14.09,14.09,0,0,0-4.93,4.55l-.47.69-.4.72a12,12,0,0,0-.77,1.46l-.67,1.5c-.19.52-.36,1-.53,1.56a8.18,8.18,0,0,0-.25.8l-.18.8c-.12.53-.26,1.06-.35,1.6-.13,1.08-.32,2.16-.35,3.24a42.16,42.16,0,0,0,.15,6.46,58.33,58.33,0,0,0,2.77,12.49c.68,2,1.45,4,2.33,6s2,3.84,3,5.63c2.06,3.65,4.07,7.32,6,11s3.76,7.46,5.47,11.27a54.61,54.61,0,0,1,4.09,11.8l-.08-1.58c0-.53-.14-1.05-.22-1.57l-.11-.79-.17-.77-.35-1.56c-.29-1-.55-2-.89-3s-.66-2-1-3A120.75,120.75,0,0,0,332,373.75c-1.87-3.77-3.85-7.48-5.88-11.17-1-1.85-2-3.62-2.85-5.51s-1.55-3.82-2.19-5.78-1.18-4-1.6-6a56.68,56.68,0,0,1-1-6.08,39,39,0,0,1-.15-6.11,30.09,30.09,0,0,1,.32-3c.07-.5.21-1,.31-1.47l.17-.74c.05-.24.15-.47.22-.71l.1-.28c.49,4.79,3.65,10.09,12.38,19.34.8,1.08,1.52,2.23,2.29,3.33,1,1.43,2,2.87,2.9,4.34.48.73,1,1.46,1.4,2.2s.91,1.48,1.35,2.24a96.49,96.49,0,0,1,8.67,18.88,83.15,83.15,0,0,1,4,20.35,84.23,84.23,0,0,1,.08,10.42c-.13,1.74-.21,3.48-.42,5.22s-.44,3.46-.64,5.21c.46-1.69.94-3.39,1.24-5.12s.61-3.47.85-5.22a77.86,77.86,0,0,0,.38-10.58,75.38,75.38,0,0,0-3.81-20.83,93.42,93.42,0,0,0-8.92-19.21c-1.12-1.85-2.42-3.59-3.67-5.36.94.93,1.75,1.76,2.78,2.76A110.67,110.67,0,0,1,353,369.67c2.26,3.95,4.56,12,5.15,22.34.43,7.48.15,21.45-6,32.18A55.09,55.09,0,0,1,334,441.52a35.63,35.63,0,0,0,3.22-3.52,45,45,0,0,0,4.76-9.35,66.59,66.59,0,0,0,2.86-10,82.87,82.87,0,0,0,1.52-10.29,88,88,0,0,0-.88-20.71,77.39,77.39,0,0,0-2.28-10.11,43.85,43.85,0,0,0-3.91-9.57,59.48,59.48,0,0,1,3.06,9.8c.78,3.32,1.41,6.68,1.86,10.07A96.39,96.39,0,0,1,345.1,398a78.7,78.7,0,0,1-.35,10.19l-.28,2.53-.38,2.53c-.29,1.67-.56,3.36-.94,5a65.67,65.67,0,0,1-2.86,9.75,48.89,48.89,0,0,1-3.55,6.95,38.06,38.06,0,0,1-9.65,6.88s2.49-6.26,1.42-10.83c-2.45,7.45-10,14.08-10,14.08s.38-.85.82-2.11l.17-.13-.15.07a27.66,27.66,0,0,0,1.49-7.24,23.52,23.52,0,0,1-7.56,10l-1.6.73c-.08,0-.77.3-1.74.61a12.42,12.42,0,0,0,3.64-4.67,19.62,19.62,0,0,0,1.27-8.56c6,.36,19.57-3.65,21.6-16.16-3.08,3.4-6.86,6.08-14.14,4.48,9.61-7.73,11.22-20.2,9-30.11a.9.9,0,0,0-.85-.7h0a.9.9,0,0,0-.86.66c-2.5,9-7.22,14.85-14.06,17.47a25.17,25.17,0,0,1-12.91,1.07,88.12,88.12,0,0,1-15.73-18.77l-.17-.33a50.51,50.51,0,0,0,3.11-4.19c.16.32.31.66.47,1a61.56,61.56,0,0,0,4.4,7.1c1.62,2.25,3.37,4.37,5.16,6.46.89,1,1.83,2,2.76,3l1.43,1.49,1.46,1.45a124.94,124.94,0,0,1-9.62-13.23,59.2,59.2,0,0,1-3.84-7.14c-.32-.73-.56-1.49-.82-2.24.7-1.14,1.3-2.35,1.93-3.54l.29.67c.33.74.67,1.47,1,2.19,1.43,2.89,3.05,5.66,4.73,8.38.86,1.35,1.7,2.71,2.6,4s1.81,2.63,2.74,3.93,1.89,2.57,2.91,3.81a39.92,39.92,0,0,0,3.18,3.57,81.75,81.75,0,0,1-5.23-7.94c-.81-1.37-1.61-2.74-2.36-4.13s-1.54-2.77-2.28-4.17c-1.49-2.79-2.84-5.65-4.13-8.5-.34-.72-.65-1.43-.94-2.15l-.46-1.08-.42-1.08c-.05-.12-.07-.24-.12-.36,1.07-2.23,2-4.52,2.87-6.83.52,1.3,1.07,2.58,1.65,3.85,1.38,3,2.84,5.91,4.33,8.82s3.07,5.8,4.7,8.63l1.24,2.12,1.3,2.09,1.33,2.05c.46.69.94,1.35,1.4,2-1.61-2.84-3-5.77-4.44-8.71s-2.7-5.93-4-8.91-2.53-6-3.74-9q-1.29-3.23-2.56-6.43a116,116,0,0,0,3.93-14.89l.34,1.41c.18.82.41,1.62.65,2.42l.68,2.4a144.75,144.75,0,0,0,7.07,18.67c.7,1.5,1.39,3,2.16,4.49s1.46,3,2.27,4.43,1.59,2.92,2.42,4.35l2.55,4.27q-1.08-2.24-2.19-4.46c-.74-1.48-1.39-3-2.11-4.49s-1.35-3-2-4.52-1.28-3-1.9-4.58a172.94,172.94,0,0,1-6.44-18.67c-1-3.71-1.84-7.46-2.52-11.24a73.36,73.36,0,0,0,.81-8.53c3.13-5.66,3-17.57,3-17.57s3.42-6.7,9.19-10.59c.3-.17.64-.44.93-.6a28.47,28.47,0,0,1,5.76-2.5C332.26,305.72,343,307.75,348.83,313.06Zm-24.26,6.15c.5-.43.85-1,1.42-1.37a9,9,0,0,1,5.49-1.06,13.09,13.09,0,0,1,5.13,1.89,15.5,15.5,0,0,1,.69,1.55c.23.64.37,1.34.55,2-3.34-2.51-7.09-4.06-10.76-3.74A11.06,11.06,0,0,0,324.57,319.21Zm57.72,59.69c1.89-1.07,3.76-2.19,5.66-3.25,4.44-2.52,9-4.8,13.29-7.72a70.89,70.89,0,0,0,6.17-4.63,64.17,64.17,0,0,0,5.64-5.3,51.75,51.75,0,0,0,4.92-6,39.57,39.57,0,0,0,2.64-4.78,23,23,0,0,1,3,1.14,27.93,27.93,0,0,1-3.59,7.69,44.64,44.64,0,0,1-8.13,8.81c-6.13,5.28-13.6,8.84-20.52,13.31a94.56,94.56,0,0,0-19.17,15.52A74.26,74.26,0,0,0,362,408.14a85,85,0,0,0,3.18-11.9c1.07-3.16,3.67-7.84,10-12.22C377.84,382.17,379.92,380.6,382.29,378.9Zm-45.58,90.48.37-.13.44-.17.22-.07-.22.07-.44.17-.37.13-.35.13-.66.24-.07,0-.31.11-.47.17h0l-.74.27-.63.23-.36.13c-.1.05-.21.08-.31.12l-.27.1-.59.21-.1,0h0l.1,0,.59-.21.27-.1c.1,0,.21-.07.31-.12l.36-.13.63-.23.74-.27h0l.47-.17.31-.11.07,0,.66-.24Zm2.4-4.41c-11,.26-30.28-4.53-34.44-5.6l1.17-.66c6.46.69,35.45-.7,35.45-.7S341.59,462.18,339.11,465ZM245,424c.51.4,1.11.84,1.58,1.22h0c2.72,7.58,4.32,17.06.36,23.23C248.61,440.86,246.58,429.49,245,424ZM101,388.5c2.83,4.17,10.72,13.11,16.09,15.64s30.24,10.28,30.24,10.28-15.2.15-34.12-9.83c-10.27-2.24-15.78-11.92-17-18.92s3.43-16.83,3.43-16.83C97.6,379,98.2,384.33,101,388.5ZM141,358c6.65.54,12.36,8.19,13.75,10.42,0,0,15.69.15,20-1s15.86-.4,36.77-4.27,27.58-5.76,30.06-9.33,3.38-3.38,5.86-3.48,3.88-4.77,6.06-6.46,3.08-1.43,4.72-3.22,1-4.72,2.73-5.71,3.67-.1,5.71-2.83,1-4.27,2.38-5.56,2.88-.85,4.07-2.69-.15-2.18.95-3.42,2.58-2.26,3.06-3.9,3.05-4.17,4-5.1a2.23,2.23,0,0,0,.48-2.2s5.17,3.17,6.26,5.52c-.23-3.21-6.45-9.24-6.45-9.24s8.19,2.27,9.94,6.41c-.89-4.55-8.15-11.1-9.45-11.51,3.76-.38,10.8,4.2,12.06,6-2.19-4.47-7.82-8.83-10.31-10.05,4.91-.79,10.8,3.32,10.8,3.32s-6.22-7-10.91-8.24c3.49-.93,8.49-.15,10.31,2.46-1.3-4.1-9.31-8.53-12.14-9.05,3.38-1,10.13-2.09,10.13-2.09s17.43,20.46,6.93,46.87-19.74,19.87-26,25.08-12.36,9.38-33.66,11.17-26.81,7.6-45,5.51-25.62-2.23-29.49,3.13c-2.24-2.08-8.84-2.38-11.23-.89a13.8,13.8,0,0,1,5,4s-7.6-3.78-14.1-3.08a6.74,6.74,0,0,1,2.43,3.37s-6.31-4.22-12.46-4.86c4.56-1.24,7.2.1,7.2.1a14.16,14.16,0,0,1,4.91-.74c-1.14-4.52-18.82-13.06-25.42-12.37,10.18-3,25.74,4.35,29.64,10.18C150.18,366.51,143.43,359.4,141,358Zm101.46-48c5.29,1.27,9.91,6.63,10.45,14.6C252.27,322.22,246,312.39,242.46,310ZM241,202.4c-6-.11-14-4-18.27-6.4a21.56,21.56,0,0,0,7.32-1l.19.1a58.41,58.41,0,0,0,12.46,4.69,35.54,35.54,0,0,0,5.67.82C247.25,201.51,245.15,202.49,241,202.4Zm14.24-5a11.12,11.12,0,0,1-2.8,1.11,10.65,10.65,0,0,1-1.46.26c-.47,0-1,0-1.53,0a34.21,34.21,0,0,1-6.34-.77A69.48,69.48,0,0,1,230.82,194l-1.5-.64c-.53-.2-1-.44-1.59-.6a17.68,17.68,0,0,0-3.27-.78,15.12,15.12,0,0,0-3.36-.11,14.26,14.26,0,0,0-2.12.44l-.46.1c-.21.07-.45.06-.66.14a2.62,2.62,0,0,1,.28,0,9.25,9.25,0,0,0-1.2.46,20.15,20.15,0,0,0-2.23-.54,19.2,19.2,0,0,1-3.91-9.55,23.64,23.64,0,0,0,6.37-6.88,60.69,60.69,0,0,1,5.93-8.34A34.14,34.14,0,0,1,249,157.47c3.74.08,7.43,2.06,8.3,5.55a16.4,16.4,0,0,0-2.85-.29,36,36,0,0,0-6.68.7c-2.19.42-4.33,1-6.46,1.57a52.92,52.92,0,0,0-6.28,2.16,45.9,45.9,0,0,0-5.95,3,41.32,41.32,0,0,0-5.39,3.87,49.33,49.33,0,0,0-8.72,9.88c1.4-1.7,2.84-3.34,4.37-4.9a43.46,43.46,0,0,1,4.9-4.3,41.67,41.67,0,0,1,5.42-3.54,48.79,48.79,0,0,1,5.88-2.7,60.86,60.86,0,0,1,6.19-1.95c2.1-.55,4.21-1,6.34-1.41a35.32,35.32,0,0,1,6.37-.61,13.35,13.35,0,0,1,3.06.32,5,5,0,0,1,2.46,1.21,5.36,5.36,0,0,1,.48.54,5.9,5.9,0,0,1,.42.6,5.3,5.3,0,0,1,.63,1.26,3.73,3.73,0,0,1-.11,2.61,5.25,5.25,0,0,1-.31.63c-.06.12-.1.12-.14.2a2.41,2.41,0,0,1-.22.2,7.08,7.08,0,0,1-1.21.81,23.54,23.54,0,0,1-2.87,1.33,37.25,37.25,0,0,1-6.15,1.85,30.63,30.63,0,0,1-3.16.53c-1,.13-2.19.23-3.27.39a88.7,88.7,0,0,0-12.92,2.78,63,63,0,0,0-6.21,2.23,30.13,30.13,0,0,0-3.47,2l.63-.32,1.49-.67,1.52-.58a58.23,58.23,0,0,1,6.27-1.83c2.12-.53,4.26-1,6.4-1.33s4.3-.69,6.46-.92c1.09-.12,2.12-.18,3.26-.28s2.22-.28,3.32-.48a40.4,40.4,0,0,0,6.45-1.81,24.41,24.41,0,0,0,3.1-1.4,8.85,8.85,0,0,0,1.5-1,2.52,2.52,0,0,0,.38-.36,1,1,0,0,0,.12-.16c0,.06.08.1.11.16a5.88,5.88,0,0,1,.39,1.51,7.84,7.84,0,0,1-.34,3.21,10.08,10.08,0,0,1-1.48,3c-.18.21-.34.46-.52.65l-.54.54a12.63,12.63,0,0,1-1.37.93,31,31,0,0,1-6.51,2.77,69.07,69.07,0,0,1-7,1.76,54.2,54.2,0,0,1-7.16.95,51.42,51.42,0,0,1-7.22-.22c-2.42-.21-4.86-.59-7.34-.61a17,17,0,0,0-3.69.34,14.05,14.05,0,0,0-3.47,1.23,16.31,16.31,0,0,1,3.52-.92,16.85,16.85,0,0,1,3.62,0c2.41.19,4.8.7,7.23,1.06a42.38,42.38,0,0,0,7.4.58,55.61,55.61,0,0,0,7.41-.68,58.53,58.53,0,0,0,7.26-1.63,32.08,32.08,0,0,0,7-2.85,14.23,14.23,0,0,0,1.64-1.14l.76-.76c.22-.26.4-.52.61-.79a12.66,12.66,0,0,0,.84-1.69c0,.06.06.1.07.16a8,8,0,0,1,.18,1,8.46,8.46,0,0,1-1.16,5,12.69,12.69,0,0,1-2.81,3.28,15.66,15.66,0,0,1-1.81,1.3c-.32.19-.62.42-1,.59l-1,.5-.5.25-.53.2-1,.41-1.09.31a9.84,9.84,0,0,1-1.1.28l-1.11.22-1.14.14c-.37.05-.75.08-1.13.1s-.76.05-1.15.05a29.83,29.83,0,0,1-9.12-1.32A27.76,27.76,0,0,0,242.5,194a26.72,26.72,0,0,0,4.65.66c.39,0,.79,0,1.18,0a9.3,9.3,0,0,0,1.18,0l1.19-.06,1.18-.16a9.58,9.58,0,0,0,1.17-.21l1.17-.26,1.14-.37.57-.19.56-.24,1.1-.48c.37-.17.71-.38,1.06-.57a20.18,20.18,0,0,0,2.05-1.3c.31-.25.53-.62.83-.89-.07.31,0,.56-.09.86a10.45,10.45,0,0,1-1.53,2.58A15.43,15.43,0,0,1,255.28,197.38Zm-44.92-5.18a43.84,43.84,0,0,1-2.71-7.18,16.55,16.55,0,0,0,1.59-1.08,21.4,21.4,0,0,0,3.24,8.22A12.12,12.12,0,0,0,210.36,192.2Zm23.95-34.07a34.31,34.31,0,0,1,9.33-4,4.58,4.58,0,0,1,4,.93l.76.63A35.64,35.64,0,0,0,234.31,158.13Zm44.83,216.34c-.46-1.36-1-2.6-1.44-4A71.2,71.2,0,0,0,297.94,350c.38-.61.51-1.23.86-1.85C291.9,366.15,282.13,372.84,279.14,374.47ZM275,278.11a81.3,81.3,0,0,0-15.08,5.42c-4.82,2.36-9.38,5.12-13.91,7.86-1.51.93-3,1.81-4.57,2.7l-.48,0c1-1.09,2-2.23,3.11-3.49,6.42-7.46,15.21-17.67,36.56-26.74,1.94-.82,3.84-1.65,5.7-2.46,6-2.61,11.67-5.07,15.85-6.12,1.07-.27,2-.48,2.88-.65s1.84-.34,2.72-.47l-1.87,1.25-2.41,1.64c-2,1.4-3.57,2.57-4.88,3.68l-.14.11c-.08.07-.09.13-.18.2v0a67.11,67.11,0,0,1-7.15,3.87c-2.47,1.18-5,2.33-7.44,3.55a79.63,79.63,0,0,0-7.25,4,35.65,35.65,0,0,0-6.47,5.12,42.53,42.53,0,0,1,6.9-4.39c2.43-1.22,4.89-2.38,7.42-3.41l1.9-.77,1.88-.8.51-.23c-.21,3.13,2.33,6.35,8.65,10.74-8.76.52-22.76,4.39-34.08,9.24-8.68,3.71-13.67,5.38-17.25,5.87l1.17-.67c4.55-2.73,9-5.51,13.69-7.91a95.86,95.86,0,0,1,14.6-5.85c2.51-.81,5.05-1.54,7.6-2.21s5.13-1.31,7.73-1.8A90.35,90.35,0,0,0,275,278.11Zm-16.33-58.8c3.07-8.27,9.66-26.52,11.6-35.61,2.37,6.58,7.66,21.08,11.11,29.37-5.42,15.92-4.51,21.28-.06,26.25-4.73-1.09-8.14-3.32-10.15-6.67-4.6-7.67-.47-18.79-.42-18.91l2.52-6.66-4.09,5.83c-.06.09-1.52,2.19-5.42,10.47-2.75,5.83-2.16,9-.45,11.73a26.38,26.38,0,0,1-4.18-2.18C258.68,226.62,258.39,220.24,258.68,219.31Zm6.73,18.15,2.07.16-1.3-1.62c-2.16-2.68-4-5-.79-11.86.8-1.69,1.48-3.11,2.08-4.31-.54,4.08-.46,9.33,2.18,13.73s7.43,7.15,14.16,8l2.71.35-2-1.88c-5-4.72-7.33-8.22-2.08-24.44.44,1,.85,1.86,1.17,2.46.89,1.69,1.81,3.24,2.69,4.74,2.46,4.19,4.79,8.16,6.37,14.33,1,3.83,4.11,10.15,8,16.82a128.39,128.39,0,0,0-15.07,5.86L280,262.26l-.58.26a237.57,237.57,0,0,0-18.79-16.67A89.48,89.48,0,0,1,259.31,235C261.52,236.28,263.68,237.32,265.41,237.46Zm35.1,210.44a19.12,19.12,0,0,1-2.34-.2c-5-1-20.91-6.71-34.89-14-1.65-4.82-.19-8.07,1.38-9.94a10.93,10.93,0,0,1,9.69-3.66.9.9,0,0,0,.69-.15.88.88,0,0,0,.36-.61,5,5,0,0,1,2-3.69c1.89-1.24,4.56-.76,5.28-.6,1.75,1.53,15.05,12.83,26.06,12.82a13.86,13.86,0,0,0,3.41-.53c1.39,4.92,1.6,10.22-.17,14.31C310.08,446,306.08,448.09,300.51,447.9Zm-55.84-55.73a32.53,32.53,0,0,1,5.22.89,30.7,30.7,0,0,1,5,1.68c.79.38,1.58.72,2.33,1.17l.15.09c-15.69.16-22,5.68-28.52,11.35a53.16,53.16,0,0,1-3.31-8.8,51.14,51.14,0,0,1,8.79-5.58A29.87,29.87,0,0,1,244.67,392.17Zm-15.34,16.12a38.91,38.91,0,0,1,17.08-8.84c10.59-2.32,20.41,3.95,20.41,3.95s1.49,4.46,7.53,10.2c-8.19-5.36-20.05-8.94-30.17-8.42a23.73,23.73,0,0,0-13.8,5.05C230,409.59,229.67,408.94,229.33,408.29Zm45.15,8.82c-.17.42-.59.59-.7,1.07a12.58,12.58,0,0,0-9.42,3.62c-4.32-9.94-17.73-14.08-17.73-14.08C259.94,405.34,272.36,415.31,274.48,417.11Zm-33.8-6.86c5.1-1.19,19.29,6.74,23.63,11.59-.3.29-.74.41-1,.73a10.63,10.63,0,0,0-2.28,6.35c-2-2.58-9-11.19-17.07-13.91a49.08,49.08,0,0,1,12.92,14.43c-5.84-3.94-14.81-10-22.77-15.3C235.89,411.77,240.68,410.25,240.68,410.25Zm71.85,15.2c-11,3.79-28.66-11.76-28.83-11.92a.88.88,0,0,0-.35-.2c-.05,0-.39-.09-.88-.18l-.46-.75c.21.1.4.25.61.35a70.76,70.76,0,0,0,10.5,4.25,50,50,0,0,0,5.49,1.35,50.52,50.52,0,0,0,5.6.75,44.38,44.38,0,0,0,11.17-.66c-1.87,0-3.71.07-5.55-.07l-1.37-.11-1.37-.17c-.91-.1-1.81-.26-2.71-.39a55.4,55.4,0,0,1-10.45-3,98.83,98.83,0,0,1-19-10.61c-3-2.07-6-4.19-9-6.37-1.52-1.09-3-2.19-4.66-3.21l-1.25-.76c-.41-.26-.86-.46-1.29-.68-.86-.47-1.76-.82-2.65-1.2a33.1,33.1,0,0,0-8.46-1.7,34.72,34.72,0,0,1,4.58-.05c10.69,1.17,21.48,7.58,35.56,16.52,9.32,5.92,20.23,7.64,28.45,4.47,6.36-2.44,11.15-7.66,14-15.19C331.56,407.1,327.73,420.44,312.53,425.45Zm-23.82-20.36c-14.28-9.07-25.24-15.58-36.32-16.78a33.31,33.31,0,0,0-18.71,3l-.2.05,0,.06c-5.24,2.5-10.36,6.42-16.23,11.63-7.36-4.54-14.22-8.56-18.91-11.22,20-.05,39.12-3.21,55.56-9.16a104.37,104.37,0,0,0,22.23-11.23,90.41,90.41,0,0,0,9.25,21.22,85.77,85.77,0,0,0,13.74,16.9A37.72,37.72,0,0,1,288.71,405.09ZM305.06,306a76.59,76.59,0,0,0-7-20c1.62-1.16,5.27-4.13,4.61-7l-.11-.48-.47-.17c-3-1-6.62-3.37-7-8.62-.16-2.35,1.2-4.64,4.43-7.44l.14-.1c1.08-.93,2.52-2,4.14-3.13,4.54,7.23,9.63,14.28,13.72,18.55,9.11,9.51,13.37,14.69,14.51,20.27a35,35,0,0,0,3,7.86,32,32,0,0,0-12.18.73,30,30,0,0,0-6.13,2.66,79.26,79.26,0,0,0-10.46,7.19A70.88,70.88,0,0,0,305.06,306Zm-2.62-52.6A111.45,111.45,0,0,1,295.57,240c1.05,1.77,2.1,3.55,3.2,5.29q1.22,1.92,2.46,3.82l2.55,3.76.16.23ZM257.33,293c2.68-.39,13.46-.79,17.18-.2a114.82,114.82,0,0,0-22,4.37c-5.27,1.74-15.25,3.28-15.25,3.28C243.43,297.1,254.65,293.37,257.33,293ZM262,302.7a15.75,15.75,0,0,1,8.09,6.86c-6.16-2.24-19.48-7.45-22.4-7.25A37,37,0,0,1,262,302.7ZM139.24,370.4c-7.68-2.46-10.06-3.49-23.31-4.61C121.29,363.62,131.86,364.52,139.24,370.4Zm1.66,19.19-9-9c10.65-1,27.78,10.35,29.34,12s1.72,2.23,5.51,2.6a212.14,212.14,0,0,1,22.5,4.84c2.9,1,41,23.26,55,27.63l.3,4.82s-39.77-20.26-54-26.41-25.07-10.08-28-10.63a10.43,10.43,0,0,0-5,.2S155.1,391,140.9,389.59Zm107.62,37.05c1.58,1.18,3.21,2.36,5,3.51.61,1.5,1.56,3.87,2.1,5.36.82,2.24,2.75,6.46-2.24,13C254,441.22,250.49,431.06,248.52,426.64Zm6.92,4.63c2,1.22,4.07,2.41,6.24,3.56l.35.24a1.12,1.12,0,0,0,.26.08,206.76,206.76,0,0,0,31,13.05c-13.68-2.46-30.81-9.58-30.81-9.58s3.13,5.74,1.26,9.86C263.17,444.11,257.67,434.87,255.44,431.27Zm97.9-5.61.05,0a2.08,2.08,0,0,1-.21.21C353.24,425.83,353.28,425.74,353.34,425.66Zm.41-.64a73.35,73.35,0,0,0,6.37-11.81l0,0c.23-.45.44-.91.69-1.35.49-.89.94-1.8,1.46-2.67l.77-1.31.8-1.29c.53-.86,1.11-1.69,1.68-2.54a74.24,74.24,0,0,1,7.7-9.36c1.41-1.45,2.88-2.84,4.39-4.19s3.09-2.62,4.7-3.85c3.23-2.44,6.6-4.71,10.06-6.84s7-4.1,10.61-6.16a72.89,72.89,0,0,0,10.35-7,46.88,46.88,0,0,0,8.64-9.2,30.44,30.44,0,0,0,3.88-8.08,24.91,24.91,0,0,1,4.33,3.07,35.81,35.81,0,0,1,8.49,12.25,41.16,41.16,0,0,1-2.93,7.09,37,37,0,0,1-3.25,4.79,29.69,29.69,0,0,1-4,4.17,25.67,25.67,0,0,1-2.29,1.75c-.4.26-.79.55-1.21.79l-1.25.7a13,13,0,0,1-1.3.64l-1.32.58-1.36.47c-.45.15-.91.31-1.39.42-3.77,1-7.7,1.64-11.61,2.37s-7.83,1.47-11.71,2.5c-1.93.51-3.87,1.06-5.77,1.71s-3.79,1.38-5.64,2.22a46,46,0,0,0-10.36,6.31,31.67,31.67,0,0,0-7.79,9.2,70.9,70.9,0,0,1,9.09-7.48c.79-.56,1.62-1.07,2.42-1.6s1.65-1,2.5-1.48c1.68-1,3.43-1.82,5.2-2.62a90.63,90.63,0,0,1,11-4.11c3.76-1.13,7.59-2.09,11.45-2.94,1.93-.44,3.88-.82,5.82-1.24s3.9-.81,5.85-1.33a28.59,28.59,0,0,0,10.85-5.49,37.5,37.5,0,0,0,4.39-4.25,40.41,40.41,0,0,0,3.67-4.88l.81-1.29c.27-.43.51-.88.76-1.32.38-.62.7-1.27,1-1.92.42,1.15.69,2.43,1,3.65a33.06,33.06,0,0,1-2.41,4.84A48.16,48.16,0,0,1,433,384a53.8,53.8,0,0,1-15.31,10.69,54.62,54.62,0,0,0,16.38-9.52,50.32,50.32,0,0,0,6.76-6.85c.62-.77,1-1.76,1.55-2.57a69.91,69.91,0,0,1,1.63,12.5c0,.24.28.3.44.45l-.11.27-.47.9-.91,1.82c-.34.58-.71,1.15-1.05,1.73l-.51.87-.58.82-1.16,1.64a38.89,38.89,0,0,1-5.49,5.84,27.91,27.91,0,0,1-6.84,4.36c-.62.28-1.27.51-1.9.77s-1.3.43-1.95.61a24.08,24.08,0,0,1-4,.58c-2.77.18-5.6.15-8.43.11s-5.67-.08-8.52-.07a132.68,132.68,0,0,0-17.11,1,54.49,54.49,0,0,0-16.64,4.68,67.67,67.67,0,0,0-7.46,4.37,54,54,0,0,0-6.74,5.41c-.39.37-.71.79-1.09,1.17C353.61,425.4,353.65,425.19,353.75,425Zm58.1-78.65a26.58,26.58,0,0,1,6.48.38c-.13.26-.25.53-.39.79-.58,1.07-1.22,2.12-1.9,3.15a50.31,50.31,0,0,1-4.61,5.84,61.49,61.49,0,0,1-5.36,5.22c-.92.84-1.89,1.63-2.86,2.43s-2,1.57-3,2.29c-2,1.5-4.14,2.84-6.3,4.15L391.6,372c10.41-8,16.82-14.13,18.82-18.18A14.21,14.21,0,0,0,411.85,346.37Zm-53.75,67c3.09-12.88,2-27.56-.68-37.27,4,7,6,13.6,6,19.81A83.74,83.74,0,0,1,358.1,413.38Zm-19.72,19.91a17.6,17.6,0,0,0,2.23-3.58A17.6,17.6,0,0,1,338.38,433.29ZM203.17,188.07c-.1.49-.23,1-.36,1.43-.07.23-.15.46-.23.66l-.08.18c-.5,0-1,0-1.45.11-.64.09-1.27.21-1.9.34a31.55,31.55,0,0,0-3.69,1c-.6.22-1.2.43-1.79.68s-1.17.53-1.74.82a13.67,13.67,0,0,0-3.14,2.18,26,26,0,0,1,3.49-1.33c.43-.14.85-.25,1.28-.36-4.58,3.27-13.58,7.84-17.91,6.41l-.13,0a29.81,29.81,0,0,1-4.66-1.66h0a31.65,31.65,0,0,1-5.18-3.07c-.27-.2-.47-.46-.74-.66a11.12,11.12,0,0,0,1.32.41c2.9.37,5.69-.2,8.41-.12,1.37,0,2.74.29,4.14.4a15.26,15.26,0,0,0,2.14,0,15.74,15.74,0,0,0,2.14-.3,14.25,14.25,0,0,0,4.06-1.49,14.69,14.69,0,0,0,3.34-2.6,36,36,0,0,1-3.8,1.58,19.45,19.45,0,0,1-3.87.86c-.65.08-1.32.11-2,.15l-2,.13c-1.36.1-2.76.2-4.16.23a33.11,33.11,0,0,1-8.14-.47,12.49,12.49,0,0,1-3.61-1.32,13.92,13.92,0,0,1-2.64-2c-.28-.39-.61-.75-.86-1.14a12.09,12.09,0,0,1-1.2-2.61,7.8,7.8,0,0,1-.42-2.7,4.13,4.13,0,0,1,.25-1.2,2.57,2.57,0,0,1,.29-.44,23.59,23.59,0,0,0,2.44,1.44c1.16.52,2.32,1,3.51,1.39a50.6,50.6,0,0,0,7.25,1.92,41.17,41.17,0,0,0,7.43.69,26.39,26.39,0,0,0,7.35-1,26.69,26.69,0,0,1-7.35.51,40.5,40.5,0,0,1-7.25-1.13,49.58,49.58,0,0,1-7-2.29c-1.13-.46-2.22-1-3.29-1.54a16.68,16.68,0,0,1-2.61-1.74,10.33,10.33,0,0,1-1.1-5,5,5,0,0,1,.68-2.28,3.13,3.13,0,0,1,1.66-1.28,51.25,51.25,0,0,1,7.4,1.83c2.57.82,5.11,1.78,7.61,2.84a117,117,0,0,1,14.58,7.34,118.24,118.24,0,0,0-14.21-8.16c-2.46-1.19-5-2.31-7.54-3.29a54.67,54.67,0,0,0-7.08-2.16l-.59-.27c-.75-.36-1.34-.9-1.4-1.35a1.51,1.51,0,0,1,.16-.87,8,8,0,0,1,.61-1.15,10.87,10.87,0,0,1,1.73-2.06,9.9,9.9,0,0,1,2.06-1.53,7.43,7.43,0,0,1,1.41.06l.89.13.89.2c.6.12,1.18.33,1.77.51s1.17.41,1.76.62a55.56,55.56,0,0,1,6.78,3.27,64.36,64.36,0,0,1,6.36,4.1,41.71,41.71,0,0,1,5.75,4.95,42.23,42.23,0,0,0-5.48-5.3,65,65,0,0,0-6.17-4.51,55.68,55.68,0,0,0-6.72-3.74c-.6-.26-1.17-.54-1.79-.76a19.22,19.22,0,0,0-1.85-.64l-.95-.28-1-.2a7.81,7.81,0,0,0-1.54-.16h0c-.12-.07-.15-.11-.17-.16a.53.53,0,0,1,0-.33,3.27,3.27,0,0,1,.49-1.21,11.17,11.17,0,0,1,2.05-2.38,10.79,10.79,0,0,1,2.58-1.75,2.55,2.55,0,0,1,1.23-.09,9.49,9.49,0,0,1,1.52.3,25.47,25.47,0,0,1,6,2.71,45,45,0,0,1,5.5,3.86,64,64,0,0,1,9.43,9.68c1.4,1.77,2.71,3.62,4,5.5,1,1.56,2,3.17,2.92,4.79-.1.21-.1.48-.2.68-1.12,0-2.1.26-2.15,1-.07.93,1.32,2.35,5.32,1.15l.89.25.67.22-.15,1.06C203.35,187.08,203.27,187.58,203.17,188.07Zm-8,7-.3.09.22-.16c1.6,1,5,.46,6-.27-.7,2.84-1.33,9.89,2.46,15.05-.39-8.52-.34-15-.28-17.68h.2l.23-.29a3.41,3.41,0,0,0,.21-.31,2.26,2.26,0,0,0,.11-.22,2.78,2.78,0,0,0,.19-.44c.1-.28.18-.56.25-.83a12.06,12.06,0,0,0,.3-1.64,2.64,2.64,0,0,0,0-.29,2.06,2.06,0,0,0,1.05.36,2.1,2.1,0,0,0,.92-.31c.82,2.3,1.93,4.78,2.28,5.51l.33.71.75-.24c1.71-.56,7,.3,8.84,1.67a34,34,0,0,0,3.52,2.15c4.19,3.83,9.39,8,17.5,9,9.73,1.2,15.08-1.71,16.9-8.28a16.76,16.76,0,0,0,4.63-4,12.59,12.59,0,0,0,1.72-3.12,6.43,6.43,0,0,0,.43-1.84c0-.07,0-.15,0-.22a50,50,0,0,0,5.06-7.07c-1.55,8.62-9.16,29.58-11.67,36.34-.74,2,1,25.9,2,28.09l.09.19.16.13a236.64,236.64,0,0,1,18.37,16.23c-20,8.95-28.63,18.84-34.92,26.14-1.28,1.5-2.5,2.91-3.67,4.12-.58.62-1.07,1-1.6,1.47l-.83.68c-.57-9,1-19.59,3.88-23.22-1.09-9.24,4.27-19.48,12.41-24.54-10.77,4.18-14.15,16.69-14.24,24.14-3.24,4.33-5.8,16.7-5.56,26a22.15,22.15,0,0,1-2.51,1.3c-.57.23-1.14.5-1.72.67a15,15,0,0,1-5.34.7h0a37.48,37.48,0,0,0-4,0h-.5c-1.81.06-3.92.18-6.16.35l-.82.06-1.33.1h-.05l-.48.06c-2.15-2.59-4.1-6-6.26-8.55-6.06-7.15-10.28-17.47-9.78-31.87.4-11.58-2-15-2.14-18.13,0-.16-.11,0-.17.08-.18-2.41-.68-4.67-2.17-6.34-6.32-7.06-11-19.11-12.73-27.95C182.57,205.64,192.57,197.21,195.13,195ZM174,309.85l.06,0h0c9.49-2.22,18.3-4.12,22.47-4.88h0l.16,0a138.24,138.24,0,0,1,14.16-1.87h0a93.67,93.67,0,0,1,12.47-.49,16.72,16.72,0,0,0,4.89-.4c2.9,1,10.93,2.81,11.79,1.72,11.15,1,23.52,13.05,23.9,13.42-.47-.3-15.78-9.91-21-11.3a21.39,21.39,0,0,1-8,.43c-11.47-1.06-50.54,4.53-73.39,11.48-19.27,5.86-44.61,19.66-62.13,33.49.82-1.48,1.63-3,2.49-4.38,6.45-8.19,15.45-13.59,24.12-18.79A194.91,194.91,0,0,1,174,309.85ZM82.51,380c4.67-5.76,10.92-14.8,10.92-14.8s-.64-3.46,10.68-12.45c-3.18,4.38-8.69,10-10.48,14s-5.76,11-6.85,16.29l-7.25,7.72a28.57,28.57,0,0,1,1-7.73A28.73,28.73,0,0,1,82.51,380Zm39.2,49.9a2.58,2.58,0,0,1,.33.16c-10.56-2.87-20.77-6.29-30.45-11.56a43,43,0,0,1-11.34-20.61C84.31,406.47,94.21,419.63,121.71,429.86Zm16.87,4.29c15,2.28,40.84,6.24,48.59,7.48,9,1.45,47.4,11.19,70.82,15-12.91-.76-25.56-2.93-38.8-5.3l-1.68-.3c-19.42-3.24-40.24-6.91-62.49-13.09-4.17-1-8.39-2-12.47-2.9C141.21,434.77,139.91,434.45,138.58,434.15Z"/><path class="cls-1" d="M388,443.72a30.89,30.89,0,0,0,3.71-2.09C390.37,442.48,389.3,443,388,443.72Z"/><path class="cls-1" d="M187.41,6.37l-3.2,3.81C179.82,15.42,181.59,21,183,23.87A20.18,20.18,0,0,1,186,17.65c2.24-3.29,13.17-5,35.46-5.72l1.34,0c5.81-.19,8.12-.65,10.76-2.17l.18-.1h.41c3,0,8.9,3.94,24.48,34.66,10.3,20.29,14.77,23.74,16,24.33.16,0,.31.06.46.07h0l.3,0a15.69,15.69,0,0,0,2.34.14c3.62,0,10.76-.84,16.24-6.71l1.27-1.38.26,1.86c1,7-1.68,10.93-4.1,13A16,16,0,0,1,281.14,79a18.29,18.29,0,0,1-3.11-.26c4.78,8.45,10.21,13.49,16.17,15a15.32,15.32,0,0,0,3.8.47,21.49,21.49,0,0,0,11.74-4l1.29-.88.1,1.56a14.48,14.48,0,0,1-4.51,11.68,19.25,19.25,0,0,1-11,5.06c16.74,7.77,24.68,20.67,25.08,30.6.31,7.58-5.55,14.15-11.23,20.51A75.94,75.94,0,0,0,302,168c1.46,6.68,4.26,10.9,8.29,12.63.11,0,.17.09.28.13a11.83,11.83,0,0,0,4.31.77c5.65,0,10.94-3.38,11-3.43l1.56-1-.18,1.86c0,.12-1.45,12.55-16.36,13h-.63a16,16,0,0,1-13.65-7.08c2.65,10.55,5.71,19.64,9.56,23.91,12,13.36,22.15,37.64,27.6,55.9a155.17,155.17,0,0,0,10.27,25.82,16.46,16.46,0,0,1,1,2.25c.55.77,4.79,3,7,3.91,1.61.63,13.56,1.33,19.94,1.42h.21l.19.1c4,2.12,15.7,6.31,17.15,6.82h.52c8.59,0,9,1.44,9.13,1.92l.06.19,0,.19c-.43,2.64-9.29,4-17.21,4-1.59,0-3.14-.05-4.58-.17a3.83,3.83,0,0,1,.12,1.87,3.32,3.32,0,0,1-3,3h-.38l-.12-.05c-4.21-1.77-14.54-2.2-22.71-2.38,2.33,2.87,3.63,6.1,3,9.51-.91,5.07-3.08,8.72-6.47,10.84a14.14,14.14,0,0,1-7.58,2,21.15,21.15,0,0,1-5.74-.84.89.89,0,0,1,0-1.73c3.84-.81,3.84-7.22,3.78-8.76a15.19,15.19,0,0,0-10.21-4.41c-.32,0-.65,0-1,.05a8.45,8.45,0,0,0-6.05,2.93c-.92,6.56,1.82,12.36,20.33,30.38a116.28,116.28,0,0,1,11.69,13.29l.14-.11a16.45,16.45,0,0,1,.91,1.57c6.1,8.38,9.91,16.4,10.76,23.89a29.1,29.1,0,0,1,9.13-9.69c20.28-14.06,31.94-24,34.66-29.49a12.22,12.22,0,0,0,.88-8.65,7.72,7.72,0,0,0-.41-1.44c-.09-.22-.2-.38-.3-.59a10.27,10.27,0,0,0-1.56-2.22,6.59,6.59,0,0,0-1-1,4.42,4.42,0,0,0-2.5-.94l-.32,0c-7.66,2.63-10.09,6.92-10.77,10.06a10.64,10.64,0,0,0,2.7,9.67.89.89,0,0,1-.61,1.54l-.2,0a25.5,25.5,0,0,1-14.94-10.12,15.22,15.22,0,0,1-2.32-13.17A17.45,17.45,0,0,1,386,325.68v-.14l.53-.24a7.89,7.89,0,0,1,2.6-.72c3.57-3.7,11.73-7.59,20.81-8.08h.14c.56,0,1.14,0,1.75,0,9.35,0,24.77,3.83,34.34,26.31,10.17,23.91,9.83,46-.7,67l.16.11c-.11.16-.29.26-.41.41a105.85,105.85,0,0,1-18.1,25.17c-18.42,19.31-38.86,29.17-66.24,31.94C360,470.09,356,478,346,482.92a24.72,24.72,0,0,1-11,2.42,37.38,37.38,0,0,1-12.14-2.17c0,4.1-2.76,8.05-7.26,10.15a14.29,14.29,0,0,1-5.91,1.31,11.87,11.87,0,0,1-9.29-4.33.88.88,0,0,1,.67-1.47.84.84,0,0,1,.35.07,11.8,11.8,0,0,0,4.47,1,5.55,5.55,0,0,0,2.72-.63,3.49,3.49,0,0,0,1.8-2.52c-.43-6.36-8.51-13.59-15.87-17.64-10.49-5.76-26.41-10.24-37.87-10.66,0,0,0,0-.06-.06-12.55-.83-24.87-3-37.73-5.27l-1.67-.29c-19.46-3.25-40.34-6.94-62.65-13.13-4.12-1-8.34-2-12.41-2.89-18.23-4.16-35.47-8.09-51.53-16.85l-.11-.06-.09-.09c-11.11-11.12-17.6-30-8.47-44.6a37.91,37.91,0,0,1,5.26-6.81c2.16-2.39,4.19-4.64,5.41-7.38a117.38,117.38,0,0,1,7.8-15l.06-.08c6.65-8.47,15.81-14,24.67-19.28a197,197,0,0,1,48.51-18.57h0l.41-.09a4.19,4.19,0,0,0,1.26-.44c-.17-1.38-.31-2.82-.44-4.22s-.29-3.15-.49-4.72c-.8-6.36-2.41-12.74-8.72-16.29a10.6,10.6,0,0,0-4.31-1.17,3.62,3.62,0,0,0-3.15,1.5l-2.28,3.25.66-3.91a6.58,6.58,0,0,1,3.39-4.79,10.1,10.1,0,0,1,4.88-1.13,14.24,14.24,0,0,1,5.37,1.07c3,1.24,7,4.47,10.19,7.28,1.73-6.62,4.43-15.81,6.89-24l.1-.31a23.1,23.1,0,0,1,1-4.73c1.41-5.47,3.53-13.75,0-17.69-8.77-9.79-14-27.66-14-36a29.34,29.34,0,0,1-3.29-1.17c-.95,4.18-4.54,19.29-8.22,25.15-4.2,6.68-27.85,25.21-33.95,29.81-12.31,9.27-20.23,16.12-22.29,19.28-3.32,5.12-6.75,5.62-12.52,6.07a41.18,41.18,0,0,0-5.73,1c1.6,2.07,2.18,4.87,1.64,6.52-.42,1.28-1.23,1.42-1.56,1.42-1.09,0-1.53-1-2-2.09a9,9,0,0,0-3.45-4.39c-1,.3-1.89.58-2.84.9,3.24,2,4.43,4.41,4.27,5.73a1.43,1.43,0,0,1-1.09,1.34l-.24,0c-.68,0-1.44-.53-2.8-1.49A21.62,21.62,0,0,0,74,286.43l-3.2,1.22c-3.07,1.21-3.91,1.52-4.41,1.52h-.08c-1.66-.11-2.78-1.7-2.78-3.95V285l.12-.21c1.34-2.33,5.13-4.14,8.48-5.74l1.9-.92c.19-.1.38-.2.58-.33l-3.08,1c-1,.45-13,5.77-18.73,5.77a6.56,6.56,0,0,1-.92-.06c-3.28-.42-5-2-5.43-3.3a1.85,1.85,0,0,1,.28-1.92,1.57,1.57,0,0,1,1.2-.49,2.61,2.61,0,0,1,.66.09,6.25,6.25,0,0,0,1.64.18,28.57,28.57,0,0,0,11.43-3,39.1,39.1,0,0,0,8.82-6.47,24.22,24.22,0,0,1,4.34-3.43c1.5-.76,16.72-2,21.81-2.45,2.24-1.79,21.18-17,23.77-20.38.75-1,2.72-4.5,5.21-8.93,6.78-12.07,17-30.22,22.88-34.57,2-7,3.42-16.17,4.42-25.31a11.05,11.05,0,0,1-4.25-3.94c0,4.69-.37,11.75-2.39,15.73-1.39,9.14-11.3,12.85-13.2,13.1a17.37,17.37,0,0,1-2.17.16c-3.53,0-9.65-1.44-11.83-12.09,2.74,7.06,6.7,9.51,10.66,9.51,3.46,0,6.92-1.89,9.5-4.2a15.3,15.3,0,0,1-6.76,1.81h-.24c-2.85-.06-6.88-1.18-10-6.22l-1.33-2.18,2.41.88a15.88,15.88,0,0,0,5.47,1.06,11.57,11.57,0,0,0,8.91-4.22c5.19-5.83,7-16.39,6-22.71-2.85,10.33-11,12.2-13.66,12.53a16.49,16.49,0,0,1-2,.12c-4.35,0-8.07-1.85-9.23-4.76l-1-2.48,2.28,1.38a7.61,7.61,0,0,0,4,1.21,8.75,8.75,0,0,0,5.75-2.5,9.93,9.93,0,0,0,3.41-9.25,15,15,0,0,0-8.11-10.93c-9.86-4.54-13.79-11.22-11.36-19.32,2.89-9.6,13.76-18.57,23-23.15-1.44-2.23-4-8.25,1.81-16.94,4.19-6.22,11.22-12.28,18-18.14,5-4.33,9.78-8.41,13.24-12.41,7.39-8.52,8.89-14.71,9.2-20.08-5.66-1-8.19-3.8-9.31-6a12.88,12.88,0,0,1,.37-11.25l1.9-3.5-.22,4a7.69,7.69,0,0,0,3.85,7.57,11.47,11.47,0,0,1-1.19-4.68c-.23-5.41,3-10.53,8.52-13.7l4.32-2.46Zm0-2.37a2.38,2.38,0,0,0-1.17.31l-4.32,2.46a20.05,20.05,0,0,0-7.76,7.66,2.3,2.3,0,0,0-1.38-1,2.36,2.36,0,0,0-2.72,1.15L168.14,18a15.22,15.22,0,0,0-.4,13.44c1.2,2.37,3.7,5.35,8.89,6.81-.54,4.41-2.29,9.58-8.45,16.68-3.35,3.86-8,7.89-13,12.16-6.93,6-14.1,12.13-18.46,18.62-5.2,7.73-4.4,13.76-3,17.25-9.3,5.1-19.27,14-22.13,23.48-2.79,9.25,1.7,17.12,12.63,22.15a12.68,12.68,0,0,1,6.75,9.13,7.53,7.53,0,0,1-2.62,7.12,6.53,6.53,0,0,1-4.19,1.91,5.35,5.35,0,0,1-2.78-.86l-2.27-1.38a2.39,2.39,0,0,0-1.23-.35,2.33,2.33,0,0,0-1.53.57,2.37,2.37,0,0,0-.68,2.68l1,2.48c1.51,3.8,6,6.25,11.43,6.25a19.14,19.14,0,0,0,2.25-.14,18.52,18.52,0,0,0,10.69-5.3c-.81,4.32-2.5,8.67-5.07,11.56a9.21,9.21,0,0,1-7.14,3.42,13.64,13.64,0,0,1-4.66-.92l-2.41-.88a2.27,2.27,0,0,0-.81-.14,2.4,2.4,0,0,0-1.83.86,2,2,0,0,0-.28.44,2.07,2.07,0,0,0-.42.08,2.36,2.36,0,0,0-1.65,2.75c2.5,12.16,9.94,14,14.15,14a17.84,17.84,0,0,0,2.41-.17c2.09-.28,13.38-4.1,15.24-14.73.17-.36.32-.74.48-1.13a115.93,115.93,0,0,1-2.61,12.54c-5.81,4.88-14.14,19.24-22.88,34.79-2.27,4-4.38,7.8-5,8.66-1.67,2.2-12.87,11.56-22.79,19.5-20,1.63-21.38,2.35-22,2.66a26.08,26.08,0,0,0-4.84,3.76,36.5,36.5,0,0,1-8.26,6.1,26.33,26.33,0,0,1-10.4,2.79,3.86,3.86,0,0,1-1-.08,5,5,0,0,0-1.31-.19A4,4,0,0,0,45,277.63a4.22,4.22,0,0,0-.78,4.35c.93,2.56,3.67,4.37,7.36,4.84a9.26,9.26,0,0,0,1.22.08,31.29,31.29,0,0,0,8.36-1.64c0,3.5,2.07,6.08,5,6.28h0c1.2,0,2.12-.37,5.47-1.68l2.39-.92h0A22.71,22.71,0,0,1,79,291.75c1.64,1.16,2.73,1.92,4.16,1.92a3.23,3.23,0,0,0,.69-.07,3.64,3.64,0,0,0,2.6-2,3.68,3.68,0,0,0,2,.57,4.06,4.06,0,0,0,3.82-3.05,8.89,8.89,0,0,0-.31-5.56c.85-.13,1.62-.23,2.33-.29,6.34-.49,10.47-1.22,14.32-7.13.89-1.37,4.8-5.94,21.72-18.69.29-.22,29.48-22.39,34.53-30.43,3-4.69,5.72-14.41,7.41-21.18,1.21,9.6,6.38,24.63,14.29,33.46,2.69,3,.68,10.84-.52,15.52a28.65,28.65,0,0,0-1,4.94v0c-1.78,5.9-4.13,13.82-5.94,20.43a34.2,34.2,0,0,0-8-5.24,16.62,16.62,0,0,0-6.27-1.25,12.37,12.37,0,0,0-6,1.43,8.94,8.94,0,0,0-4.58,6.46l-.67,3.92a2.37,2.37,0,0,0,4.28,1.76l2.28-3.26c.12-.17.34-.49,1.21-.49a8.33,8.33,0,0,1,3.26.92c5,2.81,6.58,7.82,7.42,14.47.19,1.54.34,3.12.49,4.65.07.78.14,1.56.22,2.31A198.4,198.4,0,0,0,124,324.58c-9.13,5.47-18.48,11.08-25.41,19.9,0,.06-.15.22-.2.29a119.94,119.94,0,0,0-8,15.3,27.19,27.19,0,0,1-5,6.75,39.56,39.56,0,0,0-5.57,7.25c-9.72,15.54-2.92,35.65,8.86,47.43a3.51,3.51,0,0,0,.65.5c16.45,9,33.82,12.93,52.23,17.12,4.07.93,8.27,1.89,12.39,2.89,22.32,6.21,43.27,9.91,62.81,13.16l1.64.29c13.87,2.49,25.48,4.46,37.57,5.28a2.26,2.26,0,0,0,.58.09c11.1.4,26.58,4.77,36.79,10.37,6.86,3.78,14,10.21,14.61,15.39a1.07,1.07,0,0,1-.55.62,3.24,3.24,0,0,1-1.57.33,9.53,9.53,0,0,1-3.55-.83,3.21,3.21,0,0,0-1.27-.26,3.27,3.27,0,0,0-2.48,5.39,14.23,14.23,0,0,0,11.1,5.16,16.36,16.36,0,0,0,6.91-1.54,14.59,14.59,0,0,0,8.22-9.19A38.92,38.92,0,0,0,335,487.71,26.85,26.85,0,0,0,347.06,485a32.68,32.68,0,0,0,15.51-15.4c27.26-3,47.76-13.09,66.29-32.51a108.21,108.21,0,0,0,18.32-25.39,2.33,2.33,0,0,0,.39-.44A2.38,2.38,0,0,0,448,410c10.56-21.61,10.67-43.93.35-68.2s-27.3-27.76-36.52-27.76c-.65,0-1.27,0-1.87.05-9.69.52-17.93,4.51-21.94,8.21a11.51,11.51,0,0,0-2.46.79l-.55.25a2.57,2.57,0,0,0-.75.54,20,20,0,0,0-9.1,11.65,17.53,17.53,0,0,0,2.65,15.16,27.87,27.87,0,0,0,16.37,11.09,4.29,4.29,0,0,0,.72.08,3.26,3.26,0,0,0,2.22-5.65,8.27,8.27,0,0,1-2-7.42c.77-3.56,3.83-6.4,8.86-8.2a2.52,2.52,0,0,1,1,.49,3.19,3.19,0,0,1,.45.45l.2.21a8,8,0,0,1,1.14,1.62c.06.13.13.25.19.37a3.81,3.81,0,0,1,.29.92l.07.26a9.86,9.86,0,0,1-.7,7.05c-1.75,3.54-9.05,11.38-33.89,28.6a35.26,35.26,0,0,0-6.54,5.79c-1.71-6.07-5.09-12.58-10.09-19.44h0a2.61,2.61,0,0,0-.15-.32,7.44,7.44,0,0,0-.87-1.39,2.27,2.27,0,0,0-.61-.51,117.34,117.34,0,0,0-11.37-12.83c-17.05-16.6-20.18-22.27-19.72-27.66a6.63,6.63,0,0,1,4-1.59,6.51,6.51,0,0,1,.77,0,12.42,12.42,0,0,1,7.85,3.12c-.05,2.56-.69,5.1-1.9,5.36a3.26,3.26,0,0,0-.22,6.33,23.41,23.41,0,0,0,6.39.93,16.58,16.58,0,0,0,8.84-2.38c4-2.49,6.52-6.68,7.54-12.44a12.61,12.61,0,0,0-1-7.44c5.83.2,14.14.69,17.45,2.08a3.08,3.08,0,0,0,.84.23,4.39,4.39,0,0,0,.58,0,5.64,5.64,0,0,0,5.33-4.72c.71,0,1.43,0,2.17,0,5.59,0,18.67-.58,19.55-6a3.4,3.4,0,0,0,0-1.19c-.8-2.87-3.89-3.86-11.47-3.86H390c-2.42-.87-12.82-4.64-16.46-6.55a3.46,3.46,0,0,0-1.26-.37c-7.12-.09-17.85-.81-19.35-1.28a38.81,38.81,0,0,1-5.82-3c-.18-.43-.46-1-.94-1.95A151.92,151.92,0,0,1,336.06,264c-5.53-18.51-15.81-43.16-28.11-56.81-2.33-2.59-4.6-7.56-6.89-15.13a18.64,18.64,0,0,0,9.22,2.27h.7c16.9-.53,18.62-15,18.64-15.14l.19-1.88a2.38,2.38,0,0,0-1.13-2.26,2.34,2.34,0,0,0-1.23-.35,2.38,2.38,0,0,0-1.3.39l-1.56,1s-4.81,3-9.71,3a9.48,9.48,0,0,1-3.44-.61l-.29-.12c-3.08-1.37-5.31-4.72-6.61-10a84.8,84.8,0,0,1,6.71-8.16c6-6.71,12.18-13.65,11.83-22.19s-6.15-21-21-29.79a20.23,20.23,0,0,0,6.19-4.07,16.79,16.79,0,0,0,5.23-13.54l-.11-1.55a2.35,2.35,0,0,0-1.32-2,2.28,2.28,0,0,0-1-.25,2.37,2.37,0,0,0-1.33.41l-1.29.87A19.28,19.28,0,0,1,298,91.85a13.4,13.4,0,0,1-3.22-.4c-4.39-1.1-8.54-4.49-12.36-10.09a17.86,17.86,0,0,0,10.54-4c2.88-2.43,6.06-7,4.92-15.11l-.26-1.86A2.4,2.4,0,0,0,296,58.49a2.44,2.44,0,0,0-.71-.1,2.37,2.37,0,0,0-1.73.75l-1.28,1.37a19.73,19.73,0,0,1-14.5,6,15.09,15.09,0,0,1-2-.11l-.3,0h-.06c-1-.68-5.25-4.48-14.7-23.12-16-31.59-22.26-35.95-26.6-35.95h-.34a3.55,3.55,0,0,0-1.24.32c-2.29,1.31-4.07,1.77-9.85,2l-1.34.05c-27.74.82-35,3.29-37.34,6.74l-.15.22A9.11,9.11,0,0,1,186,11.71l3.2-3.82A2.37,2.37,0,0,0,187.4,4Z"/></svg>